window.demofont = 'if (_typeface_js && _typeface_js.loadFace) _typeface_js.loadFace({"glyphs":{"0":{"ha":746,"x_min":40,"x_max":700,"o":"m 700 313 q 599 83 700 178 q 369 -12 499 -12 q 144 75 240 -12 q 40 319 40 171 l 40 660 q 139 886 40 794 q 375 978 238 978 q 605 880 510 978 q 700 646 700 782 l 700 313 m 499 313 l 499 657 q 462 741 499 704 q 372 778 425 778 q 275 735 314 778 q 236 632 236 692 l 236 315 q 276 224 236 263 q 367 185 317 185 q 460 221 421 185 q 499 313 499 257 z "},"1":{"ha":461,"x_min":38,"x_max":358,"o":"m 358 0 l 157 0 l 157 776 l 38 776 l 38 965 l 228 965 q 317 908 275 965 q 358 783 358 850 l 358 0 z "},"2":{"ha":746,"x_min":56,"x_max":658,"o":"m 658 675 q 533 415 658 549 q 313 193 422 304 l 657 190 l 657 0 l 146 0 q 84 43 113 0 q 56 128 56 86 q 160 311 56 196 q 353 511 256 411 q 458 688 458 625 q 431 750 458 721 q 361 779 403 779 q 286 749 317 779 q 256 672 256 718 l 57 672 q 149 885 57 796 q 364 974 240 974 q 573 884 488 974 q 658 675 658 794 z "},"3":{"ha":746,"x_min":57,"x_max":657,"o":"m 657 286 q 572 71 657 153 q 356 -11 488 -11 q 143 82 225 -11 q 57 296 69 165 l 253 296 q 285 215 253 244 q 364 185 318 185 q 438 213 406 185 q 469 285 469 240 q 387 394 469 360 q 304 499 304 428 q 383 594 304 561 q 461 686 461 626 q 430 755 461 725 q 353 785 399 785 q 295 758 317 785 q 265 692 274 731 l 71 692 q 156 894 71 811 q 358 978 240 978 q 564 893 481 978 q 647 692 647 808 q 619 582 647 631 q 550 493 601 549 q 630 401 603 454 q 657 286 657 347 z "},"4":{"ha":822,"x_min":43,"x_max":722,"o":"m 722 0 l 518 0 l 518 293 l 161 293 q 75 335 107 293 q 43 435 43 378 q 45 469 43 456 q 54 499 47 483 l 304 968 l 507 968 l 274 483 l 518 483 l 518 968 l 722 968 l 722 0 z "},"5":{"ha":746,"x_min":51,"x_max":692,"o":"m 692 294 q 590 74 692 161 q 368 -10 494 -10 q 142 84 233 -10 q 51 313 51 178 l 244 313 q 283 222 244 257 q 375 188 322 188 q 460 222 426 188 q 494 314 494 256 q 456 406 494 371 q 356 442 418 442 l 207 442 q 108 487 146 442 q 71 592 71 532 l 71 968 l 626 968 l 626 776 l 261 776 l 261 638 l 390 638 q 610 532 522 638 q 692 294 692 432 z "},"6":{"ha":746,"x_min":33,"x_max":700,"o":"m 700 318 q 596 79 700 175 q 347 -17 492 -17 q 123 90 213 -17 q 33 333 33 196 q 106 551 33 386 q 238 831 165 688 q 313 974 310 974 l 538 974 l 369 621 q 606 535 513 621 q 700 318 700 450 m 496 311 q 458 406 496 367 q 367 446 419 446 q 278 403 315 446 q 240 314 240 360 q 275 221 240 254 q 368 188 310 188 q 462 224 428 188 q 496 311 496 261 z "},"7":{"ha":746,"x_min":57,"x_max":689,"o":"m 689 833 q 687 790 689 804 q 675 754 685 775 l 322 0 l 100 0 l 475 776 l 57 776 l 57 968 l 564 968 q 655 928 621 968 q 689 833 689 889 z "},"8":{"ha":746,"x_min":61,"x_max":672,"o":"m 672 289 q 594 83 672 169 q 382 -8 511 -8 q 150 79 239 -8 q 61 293 61 167 q 90 405 61 353 q 165 493 118 457 q 99 592 122 542 q 76 699 76 643 q 163 890 76 803 q 368 976 250 976 q 573 888 483 976 q 663 688 663 800 q 636 569 663 624 q 581 496 615 526 q 649 401 626 454 q 672 289 672 349 m 472 676 q 442 750 472 717 q 369 783 413 783 q 298 753 325 783 q 271 682 271 722 q 297 611 271 643 q 367 579 324 579 q 441 608 410 579 q 472 676 472 636 m 478 294 q 445 362 478 331 q 376 393 413 393 q 297 364 332 393 q 263 294 263 335 q 294 212 263 246 q 372 178 325 178 q 447 214 417 178 q 478 294 478 250 z "},"9":{"ha":746,"x_min":33,"x_max":697,"o":"m 697 636 q 639 440 697 572 q 519 198 601 354 q 421 0 438 42 l 193 0 l 367 347 q 138 431 236 347 q 33 646 33 518 q 131 878 33 778 q 360 979 229 979 q 596 876 494 979 q 697 636 697 774 m 497 643 q 458 733 497 694 q 368 772 419 772 q 276 735 313 772 q 239 646 239 699 q 274 556 239 594 q 363 518 310 518 q 455 553 413 518 q 497 643 497 588 z "}," ":{"ha":694,"x_min":0,"x_max":0,"o":""},"!":{"ha":385,"x_min":96,"x_max":329,"o":"m 313 265 l 114 265 l 114 979 l 313 979 l 313 265 m 329 101 q 294 21 329 53 q 211 -11 260 -11 q 129 24 163 -11 q 96 107 96 58 q 131 188 96 154 q 215 221 165 221 q 296 186 263 221 q 329 101 329 151 z "},"#":{"ha":846,"x_min":8,"x_max":689,"o":"m 689 669 l 665 549 l 521 549 l 483 364 l 626 364 l 603 242 l 453 242 l 388 -3 l 307 -3 l 372 242 l 217 242 l 154 -3 l 74 -3 l 133 242 l 8 242 l 32 364 l 163 364 l 206 549 l 68 549 l 88 669 l 231 669 l 293 922 l 376 922 l 315 669 l 469 669 l 529 922 l 613 922 l 549 669 l 689 669 m 439 546 l 288 546 l 242 361 l 396 361 l 439 546 z "},"$":{"ha":540,"x_min":33,"x_max":486,"o":"m 486 426 q 445 293 486 351 q 331 211 404 235 l 331 133 l 190 133 l 190 206 q 131 219 154 213 q 57 242 108 225 l 60 426 q 137 382 90 403 q 224 361 183 361 q 281 378 258 361 q 304 418 304 394 q 169 486 304 425 q 33 669 33 547 q 75 799 33 739 q 182 876 117 858 l 182 968 l 331 968 l 331 885 q 478 840 408 885 l 478 663 q 390 708 439 689 q 296 728 340 728 q 240 715 265 728 q 214 681 214 701 q 350 608 214 667 q 486 426 486 550 z "},"%":{"ha":1229,"x_min":56,"x_max":1160,"o":"m 1160 221 q 1087 56 1160 128 q 922 -15 1014 -15 q 754 51 825 -15 q 683 215 683 117 q 758 390 683 318 q 933 461 832 461 q 1093 389 1026 461 q 1160 221 1160 317 m 985 976 l 379 -11 l 236 -11 l 840 976 l 985 976 m 538 722 q 467 556 538 625 q 294 486 396 486 q 126 552 197 486 q 56 717 56 618 q 130 890 56 819 q 306 960 204 960 q 469 888 400 960 q 538 722 538 817 m 1032 231 q 997 292 1032 264 q 918 321 961 321 q 850 290 875 321 q 825 221 825 260 q 852 144 825 172 q 925 115 879 115 q 1001 146 971 115 q 1032 231 1032 176 m 404 732 q 369 794 404 765 q 290 822 333 822 q 222 792 247 822 q 197 722 197 761 q 224 645 197 674 q 297 617 251 617 q 374 647 343 617 q 404 732 404 678 z "},"&":{"ha":822,"x_min":75,"x_max":786,"o":"m 786 0 l 564 0 l 543 32 q 489 14 510 19 q 385 -4 426 -4 q 153 93 239 -4 q 75 303 75 181 q 111 429 75 365 q 199 535 142 482 q 147 628 164 582 q 129 725 129 675 q 197 899 129 825 q 389 979 272 979 q 560 908 490 979 q 631 739 631 836 q 572 594 631 661 q 450 486 547 565 l 549 342 l 549 493 l 726 493 l 726 347 q 713 258 726 301 q 669 165 699 214 l 786 0 m 450 735 q 433 786 450 765 q 385 807 415 807 q 330 785 350 807 q 310 732 310 764 q 320 681 310 706 q 347 632 331 657 q 417 672 404 663 q 450 735 450 699 m 429 188 l 301 375 q 263 289 263 336 q 294 205 263 240 q 375 169 325 169 q 429 188 400 169 z "},"(":{"ha":489,"x_min":36,"x_max":424,"o":"m 424 -1 l 258 -1 q 97 229 153 110 q 36 497 36 360 q 98 758 36 632 q 265 979 160 883 l 421 979 q 299 771 347 897 q 244 494 244 631 q 424 -1 244 221 z "},")":{"ha":489,"x_min":60,"x_max":444,"o":"m 444 503 q 388 236 444 361 q 225 -1 332 111 l 60 -1 q 239 508 239 219 q 192 776 239 643 q 63 986 144 908 l 218 986 q 383 766 322 892 q 444 503 444 640 z "},"*":{"ha":561,"x_min":71,"x_max":493,"o":"m 493 800 l 313 760 l 489 717 q 473 651 489 683 q 432 594 457 618 l 299 726 l 347 556 q 278 546 314 546 q 219 553 251 546 l 268 735 l 142 600 q 76 722 85 644 l 242 754 l 71 800 q 93 865 81 839 q 131 914 106 890 l 271 776 l 214 963 q 281 974 246 974 q 344 965 313 974 l 296 783 l 432 922 q 472 863 456 893 q 493 800 488 833 z "},"+":{"ha":846,"x_min":114,"x_max":714,"o":"m 714 307 l 510 307 l 510 51 l 322 51 l 322 307 l 114 307 l 114 507 l 322 507 l 322 757 l 504 757 l 504 507 l 714 507 l 714 307 z "},",":{"ha":361,"x_min":68,"x_max":294,"o":"m 294 108 q 292 67 294 82 q 279 38 290 53 l 128 -171 l 68 -171 l 139 -11 q 87 42 104 10 q 69 108 69 74 q 108 185 69 149 q 178 222 146 222 q 257 190 219 222 q 294 108 294 158 z "},"-":{"ha":435,"x_min":54,"x_max":382,"o":"m 382 217 l 54 217 l 54 404 l 382 404 l 382 217 z "},".":{"ha":361,"x_min":64,"x_max":300,"o":"m 300 108 q 267 24 300 58 q 183 -11 233 -11 q 99 22 133 -11 q 64 106 64 56 q 97 190 64 156 q 181 225 131 225 q 265 191 229 225 q 300 108 300 157 z "},"/":{"ha":385,"x_min":-14,"x_max":396,"o":"m 396 982 l 106 -8 l -14 -8 l 261 982 l 396 982 z "},":":{"ha":361,"x_min":83,"x_max":317,"o":"m 317 425 q 283 342 317 378 q 203 306 250 306 q 119 338 154 306 q 83 419 83 371 q 116 503 83 468 q 197 539 149 539 q 281 506 246 539 q 317 425 317 474 m 311 100 q 279 19 311 53 q 197 -14 247 -14 q 117 19 150 -14 q 83 100 83 53 q 117 181 83 147 q 197 214 150 214 q 278 181 244 214 q 311 100 311 147 z "},";":{"ha":361,"x_min":79,"x_max":317,"o":"m 317 417 q 283 335 317 367 q 196 304 249 304 q 116 340 149 304 q 83 425 83 375 q 118 506 83 474 q 204 538 153 538 q 285 503 253 538 q 317 417 317 468 m 306 92 q 293 31 306 56 q 251 -31 288 19 l 144 -179 l 79 -179 l 146 -14 q 101 42 118 8 q 85 108 85 75 q 115 181 85 147 q 189 214 146 214 q 275 179 244 214 q 306 92 306 144 z "},"<":{"ha":660,"x_min":54,"x_max":597,"o":"m 597 114 l 456 114 l 54 339 l 449 553 l 597 553 l 200 349 l 597 114 z "},"=":{"ha":765,"x_min":165,"x_max":578,"o":"m 578 469 l 165 469 l 165 578 l 578 578 l 578 469 m 578 233 l 165 233 l 165 339 l 578 339 l 578 233 z "},">":{"ha":660,"x_min":75,"x_max":618,"o":"m 618 339 l 217 114 l 75 114 l 472 349 l 75 553 l 224 553 l 618 339 z "},"?":{"ha":746,"x_min":51,"x_max":650,"o":"m 650 689 q 596 523 650 599 q 456 413 542 447 l 456 256 l 258 256 l 258 431 q 354 569 258 525 q 450 688 450 614 q 425 754 450 725 q 364 783 400 783 q 282 753 317 783 q 247 675 247 722 l 51 675 q 142 891 51 804 q 361 978 233 978 q 562 894 474 978 q 650 689 650 810 m 471 104 q 442 19 471 53 q 357 -14 413 -14 q 274 20 307 -14 q 242 106 242 54 q 274 184 242 151 q 360 217 307 217 q 440 182 410 217 q 471 104 471 147 z "},"@":{"ha":988,"x_min":22,"x_max":954,"o":"m 954 438 q 883 258 954 339 q 706 176 811 176 q 655 199 672 176 q 635 261 638 221 q 551 197 594 218 q 456 175 507 175 q 297 244 365 175 q 228 408 228 313 q 303 606 228 519 q 490 692 379 692 q 674 616 606 692 q 742 411 742 540 q 751 355 742 392 q 765 310 760 318 q 829 373 810 333 q 849 467 849 413 q 751 703 849 604 q 504 803 653 803 q 231 691 340 803 q 122 431 122 579 q 238 164 122 269 q 514 58 353 58 q 651 89 589 58 l 689 17 q 608 -19 653 -8 q 517 -31 564 -31 q 168 104 314 -31 q 22 439 22 239 q 165 756 22 615 q 493 897 307 897 q 821 765 688 897 q 954 438 954 633 m 601 414 q 569 500 601 463 q 492 538 538 538 q 408 505 442 538 q 374 426 374 472 q 401 342 374 375 q 496 301 435 301 q 571 337 540 301 q 601 414 601 372 z "},"A":{"ha":822,"x_min":6,"x_max":808,"o":"m 808 0 l 600 0 l 549 185 l 268 185 l 214 0 l 6 0 l 265 860 q 314 943 281 910 q 403 981 353 981 q 503 940 458 981 q 558 849 542 904 l 808 0 m 493 364 l 410 783 l 318 364 l 493 364 z "},"B":{"ha":746,"x_min":68,"x_max":686,"o":"m 686 274 q 605 78 686 157 q 417 0 524 0 l 219 0 q 121 39 163 0 q 68 179 68 88 l 68 825 q 115 925 68 885 q 225 965 163 965 l 406 965 q 567 892 493 965 q 642 722 642 819 q 617 614 642 667 q 546 521 592 561 q 650 416 614 482 q 686 274 686 350 m 453 689 q 425 754 453 724 q 368 785 397 785 l 265 785 l 265 594 l 376 594 q 431 624 408 594 q 453 689 453 654 m 508 297 q 474 376 508 342 q 382 415 435 415 l 261 415 l 261 176 l 394 176 q 473 213 438 176 q 508 297 508 250 z "},"C":{"ha":667,"x_min":35,"x_max":632,"o":"m 632 779 q 349 704 453 779 q 246 488 246 629 q 364 254 246 331 q 626 190 463 190 l 626 0 q 589 -4 610 -3 q 549 -6 568 -6 q 203 119 354 -6 q 35 479 35 258 q 196 842 35 703 q 551 968 343 968 q 597 968 579 968 q 632 965 614 968 l 632 779 z "},"D":{"ha":874,"x_min":68,"x_max":813,"o":"m 813 486 q 724 204 813 325 q 535 49 653 107 q 365 0 438 0 l 204 0 q 110 40 151 0 q 68 126 68 81 l 68 832 q 115 919 68 876 q 219 963 163 963 l 389 963 q 665 828 531 963 q 813 486 813 681 m 608 486 q 528 688 608 610 q 265 776 436 776 l 265 190 q 290 188 279 189 q 307 188 300 188 q 520 274 432 188 q 608 486 608 361 z "},"E":{"ha":618,"x_min":74,"x_max":564,"o":"m 564 0 l 225 0 q 115 48 157 0 q 74 157 74 96 l 74 800 q 108 920 74 872 q 200 968 143 968 l 564 968 l 564 776 l 274 776 l 274 606 l 549 606 l 549 417 l 274 417 l 274 194 l 564 194 l 564 0 z "},"F":{"ha":618,"x_min":82,"x_max":572,"o":"m 572 779 l 290 779 l 290 607 l 549 607 l 549 415 l 290 415 l 290 0 l 82 0 l 82 839 q 129 926 82 886 q 214 965 176 965 l 572 965 l 572 779 z "},"G":{"ha":794,"x_min":42,"x_max":726,"o":"m 726 122 q 670 31 726 67 q 539 -6 614 -6 q 175 154 321 -6 q 42 493 42 301 q 183 822 42 686 q 557 965 332 965 q 602 963 571 965 q 635 960 633 960 l 635 774 l 576 776 q 350 700 440 776 q 251 478 251 617 q 331 281 251 368 q 518 193 411 193 l 518 594 l 726 594 l 726 122 z "},"H":{"ha":874,"x_min":71,"x_max":789,"o":"m 789 0 l 581 0 l 581 404 l 279 404 l 279 0 l 71 0 l 71 968 l 279 968 l 279 600 l 581 600 l 581 965 l 789 965 l 789 0 z "},"I":{"ha":361,"x_min":71,"x_max":276,"o":"m 276 -3 l 71 -3 l 71 963 l 276 963 l 276 -3 z "},"J":{"ha":489,"x_min":17,"x_max":410,"o":"m 410 275 q 307 67 410 142 q 67 -3 213 -3 q 42 -3 54 -3 q 17 0 25 0 l 17 182 q 47 181 26 181 q 154 208 114 181 q 203 307 203 242 l 203 965 l 410 965 l 410 275 z "},"K":{"ha":846,"x_min":85,"x_max":825,"o":"m 825 0 l 575 0 l 322 393 q 292 493 292 440 q 301 540 292 521 q 332 589 303 542 l 564 960 l 808 960 l 496 496 l 825 0 m 285 0 l 85 0 l 85 965 l 285 965 l 285 0 z "},"L":{"ha":589,"x_min":82,"x_max":567,"o":"m 567 0 l 213 0 q 122 42 163 0 q 82 121 82 83 l 82 963 l 282 963 l 282 185 l 567 185 l 567 0 z "},"M":{"ha":1079,"x_min":76,"x_max":982,"o":"m 982 0 l 808 0 l 808 686 l 654 101 q 615 22 640 50 q 542 -7 589 -7 q 460 26 489 -7 q 421 108 438 53 l 253 678 l 253 0 l 76 0 l 76 839 q 117 935 76 900 q 215 971 158 971 q 305 945 271 971 q 354 868 339 919 l 538 244 l 703 900 q 749 956 711 932 q 828 979 786 979 q 915 950 869 979 q 982 836 982 908 l 982 0 z "},"N":{"ha":874,"x_min":79,"x_max":783,"o":"m 783 121 q 741 27 783 65 q 649 -11 699 -11 q 581 6 613 -11 q 525 63 540 26 l 268 665 l 258 665 l 258 0 l 79 0 l 79 840 q 115 936 79 893 q 204 979 151 979 q 276 956 239 979 q 328 897 313 933 l 589 296 l 600 296 l 600 965 l 783 965 l 783 121 z "},"O":{"ha":1079,"x_min":31,"x_max":1026,"o":"m 1026 489 q 897 150 1026 296 q 544 -7 758 -7 q 189 121 338 -7 q 31 472 31 257 q 180 833 31 685 q 531 981 329 981 q 877 833 728 981 q 1026 489 1026 685 m 822 489 q 735 688 822 600 q 536 776 649 776 q 320 684 407 776 q 233 472 233 592 q 325 265 233 347 q 535 188 411 188 q 735 268 653 188 q 822 489 822 354 z "},"P":{"ha":689,"x_min":82,"x_max":654,"o":"m 654 683 q 536 449 654 525 q 282 388 440 388 l 282 0 l 82 0 l 82 800 q 122 915 82 865 q 219 965 163 965 l 417 965 q 579 881 504 965 q 654 683 654 796 m 453 683 q 426 751 453 719 q 364 782 399 782 l 282 782 l 282 578 l 358 578 q 426 609 399 578 q 453 683 453 640 z "},"Q":{"ha":1079,"x_min":31,"x_max":1042,"o":"m 1042 -11 l 765 -11 l 722 32 q 524 -8 626 -8 q 181 135 332 -8 q 31 467 31 279 q 178 828 31 678 q 543 979 326 979 q 881 835 738 979 q 1025 481 1025 692 q 994 301 1025 385 q 896 151 964 218 l 1042 -11 m 825 479 q 735 687 825 599 q 522 775 646 775 q 311 681 392 775 q 236 471 236 593 q 324 270 236 351 q 542 189 413 189 q 743 271 661 189 q 825 479 825 353 z "},"R":{"ha":768,"x_min":76,"x_max":749,"o":"m 749 0 l 513 0 l 314 381 q 291 431 300 408 q 282 465 282 453 q 381 570 282 529 q 481 672 481 611 q 452 746 481 710 q 390 782 424 782 l 274 782 l 274 0 l 76 0 l 76 835 q 117 921 76 879 q 197 963 157 963 l 396 963 q 597 879 511 963 q 683 686 683 796 q 631 533 683 599 q 499 436 585 476 l 749 0 z "},"S":{"ha":689,"x_min":43,"x_max":644,"o":"m 644 279 q 544 60 644 136 q 317 -8 456 -8 q 188 5 251 -8 q 57 43 124 18 l 57 250 q 150 217 115 228 q 313 182 257 182 q 423 212 389 182 q 457 286 457 242 q 350 383 457 346 q 151 465 189 439 q 43 692 43 540 q 136 897 43 814 q 372 981 229 981 q 498 972 443 981 q 608 936 553 963 l 608 726 q 503 781 557 761 q 393 800 449 800 q 294 771 339 800 q 250 690 250 742 q 351 585 250 618 q 542 513 517 531 q 644 279 644 442 z "},"T":{"ha":618,"x_min":19,"x_max":589,"o":"m 589 779 l 407 779 l 407 0 l 203 0 l 203 782 l 19 782 l 19 965 l 589 965 l 589 779 z "},"U":{"ha":846,"x_min":61,"x_max":771,"o":"m 771 319 q 669 92 771 190 q 408 -12 563 -12 q 171 81 281 -12 q 61 296 61 174 l 64 965 l 265 965 l 265 313 q 310 219 265 260 q 413 179 354 179 q 519 220 476 179 q 561 311 561 261 l 561 965 l 771 965 l 771 319 z "},"V":{"ha":794,"x_min":3,"x_max":786,"o":"m 786 965 l 524 92 q 485 19 508 40 q 392 -8 453 -8 q 299 28 336 -8 q 253 106 267 58 l 3 965 l 217 965 l 390 279 l 569 965 l 786 965 z "},"W":{"ha":1101,"x_min":32,"x_max":1056,"o":"m 1056 968 l 874 68 q 830 16 868 40 q 756 -8 792 -8 q 673 24 706 -8 q 632 111 640 57 l 550 626 l 532 626 l 456 106 q 418 31 450 65 q 336 -11 381 -11 q 267 11 308 -11 q 219 63 226 33 l 32 965 l 233 965 l 328 336 l 344 336 l 418 831 q 462 940 429 904 q 544 975 494 975 q 625 935 594 975 q 665 836 656 896 l 749 342 l 763 342 l 860 968 l 1056 968 z "},"X":{"ha":768,"x_min":8,"x_max":751,"o":"m 751 0 l 521 0 l 382 336 l 247 0 l 8 0 l 268 513 l 38 968 l 265 968 l 376 689 l 489 968 l 714 968 l 493 510 l 751 0 z "},"Y":{"ha":746,"x_min":6,"x_max":735,"o":"m 735 968 l 461 399 l 461 0 l 268 0 l 268 410 l 6 968 l 228 968 l 369 635 l 524 968 l 735 968 z "},"Z":{"ha":719,"x_min":39,"x_max":669,"o":"m 669 833 q 663 785 669 807 q 643 740 657 763 l 285 188 l 657 188 l 657 0 l 154 0 q 71 42 103 0 q 39 139 39 83 q 64 219 39 181 l 421 779 l 63 779 l 63 965 l 553 965 q 633 923 596 965 q 669 833 669 881 z "},"[":{"ha":489,"x_min":63,"x_max":382,"o":"m 382 0 l 63 0 l 63 965 l 379 965 l 379 803 l 247 803 l 247 163 l 382 163 l 382 0 z "},"]":{"ha":489,"x_min":94,"x_max":421,"o":"m 421 0 l 94 0 l 94 163 l 233 163 l 233 803 l 100 803 l 100 965 l 421 965 l 421 0 z "},"^":{"ha":461,"x_min":19,"x_max":429,"o":"m 429 711 l 342 711 l 225 831 l 108 711 l 19 711 l 151 900 l 299 900 l 429 711 z "},"_":{"ha":846,"x_min":0,"x_max":846,"o":"m 846 -139 l 844 -208 l 0 -208 l 0 -139 l 846 -139 z "},"`":{"ha":461,"x_min":32,"x_max":293,"o":"m 293 708 l 206 708 l 32 900 l 199 900 l 293 708 z "},"a":{"ha":719,"x_min":7,"x_max":660,"o":"m 660 0 l 478 0 l 478 43 q 394 0 436 13 q 303 -12 351 -12 q 93 85 179 -12 q 7 308 7 183 q 106 550 7 457 q 328 638 197 638 q 564 540 464 638 q 660 328 660 447 l 660 0 m 481 297 q 438 400 481 354 q 340 446 394 446 q 228 403 271 446 q 186 299 186 361 q 227 197 186 235 q 326 158 268 158 q 433 200 386 158 q 481 297 481 242 z "},"b":{"ha":746,"x_min":46,"x_max":701,"o":"m 701 331 q 610 87 701 182 q 378 -8 519 -8 q 160 69 257 -8 q 46 307 46 160 l 46 968 l 233 968 l 233 594 q 313 628 271 617 q 397 639 356 639 q 619 539 531 639 q 701 331 701 447 m 515 317 q 474 417 515 374 q 375 460 432 460 q 268 415 308 460 q 228 308 228 369 q 266 210 228 247 q 372 174 304 174 q 474 216 433 174 q 515 317 515 258 z "},"c":{"ha":489,"x_min":36,"x_max":444,"o":"m 444 0 l 399 -1 q 126 93 225 -1 q 36 319 36 181 q 130 547 36 457 q 383 636 224 636 l 444 632 l 444 464 l 403 468 q 265 417 311 468 q 228 315 228 375 q 296 204 228 238 q 444 179 347 179 l 444 0 z "},"d":{"ha":746,"x_min":25,"x_max":686,"o":"m 686 326 q 590 87 686 183 q 356 -10 493 -10 q 121 88 217 -10 q 25 325 25 185 q 111 538 25 444 q 333 638 203 638 q 499 594 418 638 l 499 968 l 686 968 l 686 326 m 500 314 q 460 415 500 372 q 353 458 419 458 q 253 413 294 458 q 211 308 211 367 q 257 211 211 253 q 367 169 303 169 q 463 212 426 169 q 500 314 500 254 z "},"e":{"ha":719,"x_min":29,"x_max":675,"o":"m 675 375 q 643 275 675 301 q 561 256 619 256 l 201 256 q 258 173 219 204 q 342 142 296 142 q 458 196 435 142 l 660 196 q 538 45 621 100 q 358 -10 456 -10 q 122 81 215 -10 q 29 317 29 171 q 124 549 29 457 q 369 640 218 640 q 571 561 474 640 q 675 375 675 476 m 518 369 q 448 453 490 422 q 351 483 406 483 q 256 450 301 483 q 196 369 210 417 l 518 369 z "},"f":{"ha":385,"x_min":63,"x_max":369,"o":"m 369 468 l 244 468 l 244 0 l 63 0 l 63 774 q 136 906 63 838 q 307 981 217 981 l 369 981 l 369 814 q 346 817 356 817 q 276 794 307 817 q 244 743 244 771 l 244 635 l 369 635 l 369 468 z "},"g":{"ha":746,"x_min":24,"x_max":681,"o":"m 681 -60 q 579 -276 681 -189 q 378 -356 488 -356 q 147 -269 242 -356 q 51 -57 51 -182 l 244 -57 q 283 -147 244 -112 q 376 -181 321 -181 q 453 -153 415 -181 q 496 -83 496 -121 l 496 38 q 340 -11 426 -11 q 121 88 218 -11 q 24 317 24 186 q 126 541 24 444 q 358 638 228 638 q 589 544 490 638 q 681 357 681 458 l 681 -60 m 500 303 q 467 404 500 361 q 367 453 429 453 q 256 409 297 453 q 215 306 215 365 q 258 203 215 239 q 365 167 301 167 q 465 204 431 167 q 500 303 500 242 z "},"h":{"ha":689,"x_min":57,"x_max":635,"o":"m 635 0 l 447 0 l 447 381 q 417 453 447 421 q 344 485 386 485 q 276 453 308 485 q 244 378 244 421 l 244 0 l 57 0 l 57 974 l 244 974 l 244 618 q 386 650 310 650 q 563 574 490 650 q 635 396 635 497 l 635 0 z "},"i":{"ha":333,"x_min":65,"x_max":268,"o":"m 268 794 q 239 724 268 753 q 167 694 210 694 q 96 724 126 694 q 65 794 65 753 q 95 866 65 836 q 167 896 125 896 q 238 866 208 896 q 268 794 268 836 m 261 -1 l 76 -1 l 76 624 l 261 624 l 261 -1 z "},"j":{"ha":333,"x_min":-49,"x_max":268,"o":"m 268 794 q 239 724 268 753 q 167 694 210 694 q 96 724 126 694 q 65 794 65 753 q 95 866 65 836 q 167 896 125 896 q 238 866 208 896 q 268 794 268 836 m 258 -60 q 188 -272 258 -206 q -49 -339 117 -339 l -49 -176 q 36 -160 -4 -181 q 76 -96 76 -139 l 76 624 l 258 624 l 258 -60 z "},"k":{"ha":667,"x_min":57,"x_max":669,"o":"m 669 -1 l 435 -1 l 271 244 q 250 317 250 275 q 268 388 250 357 l 413 624 l 626 624 l 429 318 l 669 -1 m 242 0 l 57 0 l 57 965 l 242 965 l 242 0 z "},"l":{"ha":333,"x_min":71,"x_max":261,"o":"m 261 0 l 71 0 l 71 965 l 261 965 l 261 0 z "},"m":{"ha":1001,"x_min":49,"x_max":936,"o":"m 936 0 l 757 0 l 757 375 q 727 437 757 408 q 664 465 697 465 q 607 435 633 465 q 581 363 581 404 l 581 0 l 404 0 l 404 369 q 375 440 404 410 q 314 471 346 471 q 251 441 275 471 q 228 378 228 411 l 228 0 l 49 0 l 49 393 q 140 571 49 499 q 315 636 222 636 q 489 564 399 636 q 573 616 525 597 q 664 635 621 635 q 847 568 767 635 q 936 385 936 494 l 936 0 z "},"n":{"ha":667,"x_min":54,"x_max":608,"o":"m 608 0 l 429 0 l 429 369 q 393 439 429 403 q 322 469 363 469 q 258 436 285 469 q 231 367 231 403 l 231 0 l 54 0 l 54 401 q 133 557 54 482 q 331 639 219 639 q 528 557 440 639 q 608 404 608 481 l 608 0 z "},"o":{"ha":719,"x_min":38,"x_max":685,"o":"m 685 329 q 603 99 685 196 q 375 -7 514 -7 q 137 81 236 -7 q 38 301 38 169 q 129 540 38 442 q 347 639 221 639 q 588 548 492 639 q 685 329 685 457 m 503 322 q 456 420 503 382 q 347 458 410 458 q 249 415 288 458 q 211 303 211 371 q 258 206 211 246 q 368 167 304 167 q 464 211 425 167 q 503 322 503 256 z "},"p":{"ha":746,"x_min":54,"x_max":706,"o":"m 706 306 q 615 84 706 178 q 400 -10 524 -10 q 313 3 356 -10 q 244 38 271 17 l 244 -278 l 54 -278 l 54 326 q 154 549 54 454 q 358 638 247 638 q 614 536 515 638 q 706 306 706 442 m 514 306 q 474 404 514 364 q 375 444 433 444 q 276 404 317 444 q 236 306 236 364 q 276 207 236 247 q 375 167 317 167 q 474 207 433 167 q 514 306 514 247 z "},"q":{"ha":746,"x_min":24,"x_max":686,"o":"m 686 -278 l 499 -278 l 499 43 q 419 7 463 19 q 333 -6 375 -6 q 103 100 193 -6 q 24 311 24 193 q 115 540 24 446 q 372 640 213 640 q 588 538 490 640 q 686 307 686 436 l 686 -278 m 486 306 q 446 404 486 364 q 347 444 406 444 q 249 404 289 444 q 208 306 208 364 q 249 207 208 247 q 347 167 289 167 q 446 207 406 167 q 486 306 486 247 z "},"r":{"ha":413,"x_min":65,"x_max":382,"o":"m 382 472 q 300 457 333 472 q 256 393 256 436 l 256 0 l 65 0 l 65 418 q 147 573 65 507 q 333 639 228 639 l 382 638 l 382 472 z "},"s":{"ha":540,"x_min":44,"x_max":489,"o":"m 489 176 q 414 28 489 85 q 244 -25 344 -25 q 54 29 131 -25 l 54 203 q 132 158 93 175 q 225 136 183 136 q 288 150 261 136 q 315 186 315 164 q 180 260 315 203 q 44 433 44 318 q 108 588 44 525 q 292 656 178 656 q 376 646 335 656 q 472 615 418 636 l 472 435 q 400 481 442 463 q 322 499 358 499 q 256 487 286 499 q 225 450 225 475 q 357 367 225 424 q 489 176 489 310 z "},"t":{"ha":413,"x_min":54,"x_max":369,"o":"m 369 -3 q 345 -6 358 -6 q 325 -6 332 -6 q 135 60 217 -6 q 54 231 54 125 l 54 897 l 236 897 l 236 626 l 369 626 l 369 456 l 236 456 l 236 261 q 268 188 236 210 q 369 165 300 165 l 369 -3 z "},"u":{"ha":667,"x_min":54,"x_max":608,"o":"m 608 254 q 525 72 608 156 q 333 -11 442 -11 q 138 65 221 -11 q 54 235 54 142 l 54 632 l 233 632 l 233 274 q 259 193 233 226 q 325 160 285 160 q 396 188 368 160 q 424 274 424 217 l 424 632 l 608 632 l 608 254 z "},"v":{"ha":618,"x_min":3,"x_max":610,"o":"m 610 632 l 431 82 q 380 16 417 40 q 301 -8 343 -8 q 226 14 263 -8 q 178 76 190 36 l 3 632 l 201 632 l 307 190 l 418 632 l 610 632 z "},"w":{"ha":874,"x_min":14,"x_max":851,"o":"m 851 626 l 728 78 q 683 13 719 38 q 608 -12 646 -12 q 536 1 564 -12 q 489 68 496 22 l 435 399 l 376 75 q 333 11 368 33 q 253 -11 297 -11 q 183 13 218 -11 q 142 65 149 36 l 14 632 l 199 632 l 263 203 l 271 203 l 322 521 q 362 605 331 571 q 433 639 393 639 q 515 599 481 639 q 557 503 550 558 l 600 203 l 608 203 l 669 626 l 851 626 z "},"x":{"ha":618,"x_min":8,"x_max":608,"o":"m 608 0 l 393 0 l 307 171 l 219 0 l 8 0 l 201 325 l 19 632 l 219 632 l 301 481 l 382 632 l 586 632 l 407 328 l 608 0 z "},"y":{"ha":689,"x_min":28,"x_max":624,"o":"m 624 -76 q 527 -274 624 -194 q 307 -354 431 -354 q 115 -263 201 -354 q 28 -57 28 -172 l 214 -57 q 248 -142 214 -108 q 329 -176 282 -176 q 412 -138 385 -176 q 439 -31 439 -100 q 435 28 439 -4 q 301 -7 374 -7 q 135 57 206 -7 q 54 242 54 129 l 54 626 l 242 626 l 242 253 q 272 196 242 221 q 340 171 303 171 q 408 195 379 171 q 436 265 436 219 l 436 632 l 624 632 l 624 -76 z "},"z":{"ha":589,"x_min":31,"x_max":544,"o":"m 544 524 q 541 486 544 503 q 524 454 538 469 l 282 174 l 543 174 l 543 0 l 125 0 q 58 33 85 0 q 31 106 31 67 q 54 179 31 151 l 307 464 l 54 464 l 54 635 l 432 635 q 513 601 481 635 q 544 524 544 568 z "},"{":{"ha":513,"x_min":43,"x_max":435,"o":"m 435 953 l 358 953 q 330 939 338 953 q 322 908 322 925 l 322 611 q 287 508 322 560 q 208 444 251 456 q 287 385 251 431 q 322 292 322 339 l 322 -19 q 357 -51 322 -51 l 424 -51 l 424 -151 l 256 -151 q 176 -117 213 -151 q 139 -40 139 -83 l 139 297 q 110 375 139 354 q 43 390 89 390 l 43 496 q 113 524 86 500 q 139 593 139 547 l 139 926 q 193 1011 139 967 q 258 1050 240 1050 l 435 1050 l 435 953 z "},"|":{"ha":846,"x_min":331,"x_max":472,"o":"m 472 -17 l 331 -17 l 331 888 l 472 888 l 472 -17 z "},"}":{"ha":513,"x_min":65,"x_max":457,"o":"m 457 390 q 390 366 418 390 q 361 297 361 342 l 361 -40 q 325 -117 361 -82 q 244 -151 289 -151 l 76 -151 l 76 -51 l 143 -51 q 169 -42 160 -51 q 178 -19 178 -33 l 178 292 q 212 385 178 340 q 292 444 246 431 q 214 507 250 454 q 178 611 178 560 l 178 908 q 171 940 178 926 q 142 953 164 953 l 65 953 l 65 1050 l 242 1050 q 307 1013 261 1050 q 361 926 361 968 l 361 593 q 387 524 361 547 q 457 496 413 500 l 457 390 z "},"~":{"ha":708,"x_min":54,"x_max":660,"o":"m 660 514 q 590 392 644 440 q 451 344 535 344 q 311 379 418 344 q 214 397 256 397 q 126 340 161 397 l 54 340 q 116 448 54 396 q 253 500 178 500 q 339 486 290 500 q 481 451 458 451 q 543 466 521 451 q 585 514 565 481 l 660 514 z "},"Ä":{"ha":822,"x_min":6,"x_max":808,"o":"m 808 0 l 600 0 l 549 185 l 268 185 l 214 0 l 6 0 l 265 860 q 314 943 281 910 q 403 981 353 981 q 503 940 458 981 q 558 849 542 904 l 808 0 m 493 364 l 410 783 l 318 364 l 493 364 m 708 1119 q 675 1035 708 1069 q 592 1000 642 1000 q 507 1033 542 1000 q 472 1117 472 1067 q 506 1201 472 1167 q 589 1236 539 1236 q 674 1203 639 1236 q 708 1119 708 1169 m 346 1119 q 313 1035 346 1069 q 229 1000 279 1000 q 144 1033 179 1000 q 110 1117 110 1067 q 143 1201 110 1167 q 226 1236 176 1236 q 311 1203 276 1236 q 346 1119 346 1169 z "},"Å":{"ha":822,"x_min":6,"x_max":808,"o":"m 808 0 l 600 0 l 549 185 l 268 185 l 214 0 l 6 0 l 265 860 q 314 943 281 910 q 403 981 353 981 q 503 940 458 981 q 558 849 542 904 l 808 0 m 493 364 l 410 783 l 318 364 l 493 364 m 558 1182 q 517 1063 558 1113 q 406 1013 475 1013 q 294 1062 336 1013 q 253 1182 253 1111 q 294 1301 253 1251 q 406 1351 336 1351 q 517 1303 475 1351 q 558 1182 558 1254 m 458 1182 q 446 1233 458 1211 q 406 1256 433 1256 q 366 1232 379 1256 q 353 1182 353 1208 q 365 1131 353 1153 q 406 1108 378 1108 q 445 1132 432 1108 q 458 1182 458 1156 z "},"Ç":{"ha":667,"x_min":35,"x_max":632,"o":"m 632 779 q 348 708 450 779 q 246 488 246 636 q 364 246 246 318 q 626 190 454 190 l 626 0 q 587 -4 610 -3 q 543 -6 564 -6 l 511 -58 l 503 -79 q 536 -100 503 -82 q 569 -151 569 -118 q 532 -228 569 -189 q 453 -267 494 -267 q 360 -250 414 -267 q 301 -229 347 -246 l 346 -132 q 389 -157 368 -144 q 425 -169 410 -169 q 444 -169 435 -169 q 456 -151 456 -167 q 422 -115 456 -136 q 375 -92 403 -103 l 438 7 q 160 167 272 46 q 35 479 35 301 q 196 842 35 703 q 551 968 343 968 q 597 968 579 968 q 632 965 614 968 l 632 779 z "},"É":{"ha":618,"x_min":74,"x_max":564,"o":"m 564 0 l 225 0 q 115 48 157 0 q 74 157 74 96 l 74 800 q 108 920 74 872 q 200 968 143 968 l 564 968 l 564 776 l 274 776 l 274 606 l 549 606 l 549 417 l 274 417 l 274 194 l 564 194 l 564 0 m 497 1217 l 321 1025 l 236 1025 l 332 1217 l 497 1217 z "},"Ñ":{"ha":874,"x_min":79,"x_max":783,"o":"m 783 121 q 741 27 783 65 q 649 -11 699 -11 q 581 6 613 -11 q 525 63 540 26 l 268 665 l 258 665 l 258 0 l 79 0 l 79 840 q 115 936 79 893 q 204 979 151 979 q 276 956 239 979 q 328 897 313 933 l 589 296 l 600 296 l 600 965 l 783 965 l 783 121 m 731 1203 q 659 1081 715 1129 q 521 1032 603 1032 q 382 1068 499 1032 q 281 1086 324 1086 q 224 1060 247 1086 q 197 1029 210 1044 l 125 1029 q 193 1142 133 1094 q 322 1189 253 1189 q 411 1175 364 1189 q 553 1140 528 1140 q 621 1158 599 1140 q 656 1203 631 1167 l 731 1203 z "},"Ö":{"ha":1079,"x_min":31,"x_max":1026,"o":"m 1026 489 q 897 150 1026 296 q 544 -7 758 -7 q 189 121 338 -7 q 31 472 31 257 q 180 833 31 685 q 531 981 329 981 q 877 833 728 981 q 1026 489 1026 685 m 822 489 q 735 688 822 600 q 536 776 649 776 q 320 684 407 776 q 233 472 233 592 q 325 265 233 347 q 535 188 411 188 q 735 268 653 188 q 822 489 822 354 m 825 1140 q 792 1056 825 1090 q 708 1021 758 1021 q 624 1054 658 1021 q 589 1138 589 1088 q 622 1222 589 1188 q 706 1257 656 1257 q 790 1224 756 1257 q 825 1140 825 1190 m 463 1140 q 429 1056 463 1090 q 346 1021 396 1021 q 261 1054 296 1021 q 226 1138 226 1088 q 260 1222 226 1188 q 343 1257 293 1257 q 428 1224 393 1257 q 463 1140 463 1190 z "},"Ü":{"ha":846,"x_min":61,"x_max":771,"o":"m 771 319 q 669 92 771 190 q 408 -12 563 -12 q 171 81 281 -12 q 61 296 61 174 l 64 965 l 265 965 l 265 313 q 310 219 265 260 q 413 179 354 179 q 519 220 476 179 q 561 311 561 261 l 561 965 l 771 965 l 771 319 m 725 1149 q 692 1064 725 1099 q 608 1029 658 1029 q 524 1063 558 1029 q 489 1146 489 1096 q 522 1231 489 1196 q 606 1265 556 1265 q 690 1232 656 1265 q 725 1149 725 1199 m 363 1149 q 329 1064 363 1099 q 246 1029 296 1029 q 161 1063 196 1029 q 126 1146 126 1096 q 160 1231 126 1196 q 243 1265 193 1265 q 328 1232 293 1265 q 363 1149 363 1199 z "},"á":{"ha":719,"x_min":7,"x_max":660,"o":"m 660 0 l 478 0 l 478 43 q 394 0 436 13 q 303 -12 351 -12 q 93 85 179 -12 q 7 308 7 183 q 106 550 7 457 q 328 638 197 638 q 564 540 464 638 q 660 328 660 447 l 660 0 m 481 297 q 438 400 481 354 q 340 446 394 446 q 228 403 271 446 q 186 299 186 361 q 227 197 186 235 q 326 158 268 158 q 433 200 386 158 q 481 297 481 242 m 481 900 l 304 708 l 219 708 l 315 900 l 481 900 z "},"à":{"ha":719,"x_min":7,"x_max":660,"o":"m 660 0 l 478 0 l 478 43 q 394 0 436 13 q 303 -12 351 -12 q 93 85 179 -12 q 7 308 7 183 q 106 550 7 457 q 328 638 197 638 q 564 540 464 638 q 660 328 660 447 l 660 0 m 481 297 q 438 400 481 354 q 340 446 394 446 q 228 403 271 446 q 186 299 186 361 q 227 197 186 235 q 326 158 268 158 q 433 200 386 158 q 481 297 481 242 m 464 704 l 376 704 l 203 896 l 369 896 l 464 704 z "},"â":{"ha":719,"x_min":7,"x_max":660,"o":"m 660 0 l 478 0 l 478 43 q 394 0 436 13 q 303 -12 351 -12 q 93 85 179 -12 q 7 308 7 183 q 106 550 7 457 q 328 638 197 638 q 564 540 464 638 q 660 328 660 447 l 660 0 m 481 297 q 438 400 481 354 q 340 446 394 446 q 228 403 271 446 q 186 299 186 361 q 227 197 186 235 q 326 158 268 158 q 433 200 386 158 q 481 297 481 242 m 546 707 l 458 707 l 342 826 l 225 707 l 136 707 l 268 896 l 415 896 l 546 707 z "},"ä":{"ha":719,"x_min":7,"x_max":660,"o":"m 660 0 l 478 0 l 478 43 q 394 0 436 13 q 303 -12 351 -12 q 93 85 179 -12 q 7 308 7 183 q 106 550 7 457 q 328 638 197 638 q 564 540 464 638 q 660 328 660 447 l 660 0 m 481 297 q 438 400 481 354 q 340 446 394 446 q 228 403 271 446 q 186 299 186 361 q 227 197 186 235 q 326 158 268 158 q 433 200 386 158 q 481 297 481 242 m 638 832 q 604 747 638 782 q 521 713 571 713 q 436 746 471 713 q 401 829 401 779 q 435 914 401 879 q 518 949 468 949 q 603 915 568 949 q 638 832 638 882 m 275 832 q 242 747 275 782 q 158 713 208 713 q 74 746 108 713 q 39 829 39 779 q 72 914 39 879 q 156 949 106 949 q 240 915 206 949 q 275 832 275 882 z "},"ã":{"ha":719,"x_min":7,"x_max":660,"o":"m 660 0 l 478 0 l 478 43 q 394 0 436 13 q 303 -12 351 -12 q 93 85 179 -12 q 7 308 7 183 q 106 550 7 457 q 328 638 197 638 q 564 540 464 638 q 660 328 660 447 l 660 0 m 481 297 q 438 400 481 354 q 340 446 394 446 q 228 403 271 446 q 186 299 186 361 q 227 197 186 235 q 326 158 268 158 q 433 200 386 158 q 481 297 481 242 m 635 882 q 563 760 619 808 q 425 711 507 711 q 286 747 403 711 q 185 765 228 765 q 128 739 151 765 q 101 708 114 724 l 29 708 q 97 821 38 774 q 226 868 157 868 q 315 854 268 868 q 457 819 432 819 q 525 838 503 819 q 560 882 535 846 l 635 882 z "},"å":{"ha":719,"x_min":7,"x_max":660,"o":"m 660 0 l 478 0 l 478 43 q 394 0 436 13 q 303 -12 351 -12 q 93 85 179 -12 q 7 308 7 183 q 106 550 7 457 q 328 638 197 638 q 564 540 464 638 q 660 328 660 447 l 660 0 m 481 297 q 438 400 481 354 q 340 446 394 446 q 228 403 271 446 q 186 299 186 361 q 227 197 186 235 q 326 158 268 158 q 433 200 386 158 q 481 297 481 242 m 476 847 q 435 728 476 778 q 324 678 393 678 q 213 727 254 678 q 171 847 171 776 q 213 967 171 917 q 324 1017 254 1017 q 435 968 393 1017 q 476 847 476 919 m 376 847 q 364 899 376 876 q 324 921 351 921 q 284 897 297 921 q 271 847 271 874 q 283 796 271 818 q 324 774 296 774 q 363 797 350 774 q 376 847 376 821 z "},"ç":{"ha":489,"x_min":36,"x_max":444,"o":"m 444 0 q 420 -2 431 -1 q 403 -3 410 -3 q 381 -1 393 -3 q 364 0 369 0 l 329 -58 l 321 -79 q 354 -100 321 -82 q 388 -151 388 -118 q 350 -228 388 -189 q 271 -267 313 -267 q 178 -250 232 -267 q 119 -229 165 -246 l 164 -132 q 207 -157 186 -144 q 243 -169 228 -169 q 263 -169 253 -169 q 274 -151 274 -167 q 240 -115 274 -136 q 193 -92 221 -103 l 261 17 q 94 131 151 49 q 36 319 36 213 q 130 547 36 457 q 383 636 224 636 l 444 632 l 444 464 l 403 468 q 265 417 311 468 q 228 315 228 375 q 296 204 228 238 q 444 179 347 179 l 444 0 z "},"é":{"ha":719,"x_min":29,"x_max":675,"o":"m 675 375 q 643 275 675 301 q 561 256 619 256 l 201 256 q 258 173 219 204 q 342 142 296 142 q 458 196 435 142 l 660 196 q 538 45 621 100 q 358 -10 456 -10 q 122 81 215 -10 q 29 317 29 171 q 124 549 29 457 q 369 640 218 640 q 571 561 474 640 q 675 375 675 476 m 518 369 q 448 453 490 422 q 351 483 406 483 q 256 450 301 483 q 196 369 210 417 l 518 369 m 489 892 l 313 700 l 228 700 l 324 892 l 489 892 z "},"è":{"ha":719,"x_min":29,"x_max":675,"o":"m 675 375 q 643 275 675 301 q 561 256 619 256 l 201 256 q 258 173 219 204 q 342 142 296 142 q 458 196 435 142 l 660 196 q 538 45 621 100 q 358 -10 456 -10 q 122 81 215 -10 q 29 317 29 171 q 124 549 29 457 q 369 640 218 640 q 571 561 474 640 q 675 375 675 476 m 518 369 q 448 453 490 422 q 351 483 406 483 q 256 450 301 483 q 196 369 210 417 l 518 369 m 485 700 l 397 700 l 224 892 l 390 892 l 485 700 z "},"ê":{"ha":719,"x_min":29,"x_max":675,"o":"m 675 375 q 643 275 675 301 q 561 256 619 256 l 201 256 q 258 173 219 204 q 342 142 296 142 q 458 196 435 142 l 660 196 q 538 45 621 100 q 358 -10 456 -10 q 122 81 215 -10 q 29 317 29 171 q 124 549 29 457 q 369 640 218 640 q 571 561 474 640 q 675 375 675 476 m 518 369 q 448 453 490 422 q 351 483 406 483 q 256 450 301 483 q 196 369 210 417 l 518 369 m 567 703 l 479 703 l 363 822 l 246 703 l 157 703 l 289 892 l 436 892 l 567 703 z "},"ë":{"ha":719,"x_min":29,"x_max":675,"o":"m 675 375 q 643 275 675 301 q 561 256 619 256 l 201 256 q 258 173 219 204 q 342 142 296 142 q 458 196 435 142 l 660 196 q 538 45 621 100 q 358 -10 456 -10 q 122 81 215 -10 q 29 317 29 171 q 124 549 29 457 q 369 640 218 640 q 571 561 474 640 q 675 375 675 476 m 518 369 q 448 453 490 422 q 351 483 406 483 q 256 450 301 483 q 196 369 210 417 l 518 369 m 663 832 q 629 747 663 782 q 546 713 596 713 q 461 746 496 713 q 426 829 426 779 q 460 914 426 879 q 543 949 493 949 q 628 915 593 949 q 663 832 663 882 m 300 832 q 267 747 300 782 q 183 713 233 713 q 99 746 133 713 q 64 829 64 779 q 97 914 64 879 q 181 949 131 949 q 265 915 231 949 q 300 832 300 882 z "},"í":{"ha":333,"x_min":61,"x_max":322,"o":"m 261 -3 l 76 -3 l 76 624 l 261 624 l 261 -3 m 322 892 l 146 700 l 61 700 l 157 892 l 322 892 z "},"ì":{"ha":333,"x_min":11,"x_max":272,"o":"m 261 -3 l 76 -3 l 76 624 l 261 624 l 261 -3 m 272 704 l 185 704 l 11 896 l 178 896 l 272 704 z "},"î":{"ha":333,"x_min":-26,"x_max":383,"o":"m 261 -3 l 76 -3 l 76 624 l 261 624 l 261 -3 m 383 703 l 296 703 l 179 822 l 63 703 l -26 703 l 106 892 l 253 892 l 383 703 z "},"ï":{"ha":333,"x_min":-119,"x_max":479,"o":"m 261 -3 l 76 -3 l 76 624 l 261 624 l 261 -3 m 479 819 q 446 735 479 769 q 363 700 413 700 q 278 733 313 700 q 243 817 243 767 q 276 901 243 867 q 360 936 310 936 q 444 903 410 936 q 479 819 479 869 m 117 819 q 83 735 117 769 q 0 700 50 700 q -85 733 -50 700 q -119 817 -119 767 q -86 901 -119 867 q -3 936 -53 936 q 82 903 47 936 q 117 819 117 869 z "},"ñ":{"ha":667,"x_min":25,"x_max":631,"o":"m 608 0 l 429 0 l 429 369 q 393 439 429 403 q 322 469 363 469 q 258 436 285 469 q 231 367 231 403 l 231 0 l 54 0 l 54 401 q 133 557 54 482 q 331 639 219 639 q 528 557 440 639 q 608 404 608 481 l 608 0 m 631 883 q 559 761 615 810 q 421 713 503 713 q 282 749 399 713 q 181 767 224 767 q 124 740 147 767 q 97 710 110 725 l 25 710 q 93 822 33 775 q 222 869 153 869 q 311 856 264 869 q 453 821 428 821 q 521 839 499 821 q 556 883 531 847 l 631 883 z "},"ó":{"ha":719,"x_min":38,"x_max":685,"o":"m 685 329 q 603 99 685 196 q 375 -7 514 -7 q 137 81 236 -7 q 38 301 38 169 q 129 540 38 442 q 347 639 221 639 q 588 548 492 639 q 685 329 685 457 m 503 322 q 456 420 503 382 q 347 458 410 458 q 249 415 288 458 q 211 303 211 371 q 258 206 211 246 q 368 167 304 167 q 464 211 425 167 q 503 322 503 256 m 468 896 l 292 704 l 207 704 l 303 896 l 468 896 z "},"ò":{"ha":719,"x_min":38,"x_max":685,"o":"m 685 329 q 603 99 685 196 q 375 -7 514 -7 q 137 81 236 -7 q 38 301 38 169 q 129 540 38 442 q 347 639 221 639 q 588 548 492 639 q 685 329 685 457 m 503 322 q 456 420 503 382 q 347 458 410 458 q 249 415 288 458 q 211 303 211 371 q 258 206 211 246 q 368 167 304 167 q 464 211 425 167 q 503 322 503 256 m 472 700 l 385 700 l 211 892 l 378 892 l 472 700 z "},"ô":{"ha":719,"x_min":38,"x_max":685,"o":"m 685 329 q 603 99 685 196 q 375 -7 514 -7 q 137 81 236 -7 q 38 301 38 169 q 129 540 38 442 q 347 639 221 639 q 588 548 492 639 q 685 329 685 457 m 503 322 q 456 420 503 382 q 347 458 410 458 q 249 415 288 458 q 211 303 211 371 q 258 206 211 246 q 368 167 304 167 q 464 211 425 167 q 503 322 503 256 m 546 699 l 458 699 l 342 818 l 225 699 l 136 699 l 268 888 l 415 888 l 546 699 z "},"ö":{"ha":719,"x_min":38,"x_max":685,"o":"m 685 329 q 603 99 685 196 q 375 -7 514 -7 q 137 81 236 -7 q 38 301 38 169 q 129 540 38 442 q 347 639 221 639 q 588 548 492 639 q 685 329 685 457 m 503 322 q 456 420 503 382 q 347 458 410 458 q 249 415 288 458 q 211 303 211 371 q 258 206 211 246 q 368 167 304 167 q 464 211 425 167 q 503 322 503 256 m 650 832 q 617 747 650 782 q 533 713 583 713 q 449 746 483 713 q 414 829 414 779 q 447 914 414 879 q 531 949 481 949 q 615 915 581 949 q 650 832 650 882 m 288 832 q 254 747 288 782 q 171 713 221 713 q 86 746 121 713 q 51 829 51 779 q 85 914 51 879 q 168 949 118 949 q 253 915 218 949 q 288 832 288 882 z "},"õ":{"ha":719,"x_min":38,"x_max":685,"o":"m 685 329 q 603 99 685 196 q 375 -7 514 -7 q 137 81 236 -7 q 38 301 38 169 q 129 540 38 442 q 347 639 221 639 q 588 548 492 639 q 685 329 685 457 m 503 322 q 456 420 503 382 q 347 458 410 458 q 249 415 288 458 q 211 303 211 371 q 258 206 211 246 q 368 167 304 167 q 464 211 425 167 q 503 322 503 256 m 650 881 q 578 758 635 807 q 440 710 522 710 q 301 746 418 710 q 200 764 243 764 q 143 738 167 764 q 117 707 129 722 l 44 707 q 113 819 53 772 q 242 867 172 867 q 331 853 283 867 q 472 818 447 818 q 540 836 518 818 q 575 881 550 844 l 650 881 z "},"ú":{"ha":667,"x_min":54,"x_max":608,"o":"m 608 254 q 525 72 608 156 q 333 -11 442 -11 q 138 65 221 -11 q 54 235 54 142 l 54 632 l 233 632 l 233 274 q 259 193 233 226 q 325 160 285 160 q 396 188 368 160 q 424 274 424 217 l 424 632 l 608 632 l 608 254 m 456 892 l 279 700 l 194 700 l 290 892 l 456 892 z "},"ù":{"ha":667,"x_min":54,"x_max":608,"o":"m 608 254 q 525 72 608 156 q 333 -11 442 -11 q 138 65 221 -11 q 54 235 54 142 l 54 632 l 233 632 l 233 274 q 259 193 233 226 q 325 160 285 160 q 396 188 368 160 q 424 274 424 217 l 424 632 l 608 632 l 608 254 m 443 704 l 356 704 l 182 896 l 349 896 l 443 704 z "},"û":{"ha":667,"x_min":54,"x_max":608,"o":"m 608 254 q 525 72 608 156 q 333 -11 442 -11 q 138 65 221 -11 q 54 235 54 142 l 54 632 l 233 632 l 233 274 q 259 193 233 226 q 325 160 285 160 q 396 188 368 160 q 424 274 424 217 l 424 632 l 608 632 l 608 254 m 529 699 l 442 699 l 325 818 l 208 699 l 119 699 l 251 888 l 399 888 l 529 699 z "},"ü":{"ha":667,"x_min":39,"x_max":638,"o":"m 608 254 q 525 72 608 156 q 333 -11 442 -11 q 138 65 221 -11 q 54 235 54 142 l 54 632 l 233 632 l 233 274 q 259 193 233 226 q 325 160 285 160 q 396 188 368 160 q 424 274 424 217 l 424 632 l 608 632 l 608 254 m 638 840 q 604 756 638 790 q 521 721 571 721 q 436 754 471 721 q 401 838 401 788 q 435 922 401 888 q 518 957 468 957 q 603 924 568 957 q 638 840 638 890 m 275 840 q 242 756 275 790 q 158 721 208 721 q 74 754 108 721 q 39 838 39 788 q 72 922 39 888 q 156 957 106 957 q 240 924 206 957 q 275 840 275 890 z "},"†":{"ha":768,"x_min":46,"x_max":714,"o":"m 714 518 l 472 518 l 472 -242 l 282 -242 l 282 513 l 46 513 l 46 665 l 285 667 l 285 963 l 472 963 l 472 669 l 714 669 l 714 518 z "},"°":{"ha":489,"x_min":67,"x_max":386,"o":"m 386 796 q 333 717 386 747 q 233 690 288 690 q 125 717 174 690 q 67 801 67 749 l 67 921 q 118 1006 67 975 q 236 1036 169 1036 q 336 1006 286 1036 q 386 929 386 975 l 386 796 m 311 828 l 311 899 q 290 939 311 922 q 239 956 269 956 q 174 942 200 956 q 147 897 147 928 l 147 829 q 172 783 147 799 q 239 768 196 768 q 292 785 272 768 q 311 828 311 801 z "},"¢":{"ha":489,"x_min":42,"x_max":424,"o":"m 424 332 l 372 332 l 372 168 l 214 168 l 214 342 q 89 428 136 364 q 42 569 42 492 q 88 705 42 643 q 208 789 135 767 l 208 953 l 369 953 l 369 800 l 421 800 l 421 651 q 387 656 399 654 q 353 657 375 657 q 257 639 289 657 q 214 558 214 615 q 258 500 214 519 q 344 485 293 485 l 424 489 l 424 332 z "},"£":{"ha":896,"x_min":43,"x_max":871,"o":"m 871 256 q 767 56 854 128 q 543 -17 679 -17 q 422 -6 494 -17 q 228 19 260 19 q 157 17 189 19 q 54 8 60 8 l 54 179 q 158 203 113 179 q 217 286 217 233 q 211 349 217 321 q 193 415 206 378 l 43 415 l 43 578 l 131 578 q 115 640 122 608 q 108 697 108 672 q 194 896 108 819 q 447 976 286 976 q 674 888 582 976 q 771 683 760 803 l 575 683 q 538 769 575 739 q 447 800 500 800 q 349 774 386 800 q 303 683 303 742 q 310 626 303 657 q 322 581 318 596 l 504 581 l 504 419 l 382 419 q 408 306 408 358 q 382 193 408 247 q 479 175 475 175 q 547 169 518 169 q 629 189 596 169 q 672 256 663 208 l 871 256 z "},"§":{"ha":768,"x_min":42,"x_max":711,"o":"m 711 367 q 678 258 711 308 q 586 171 644 207 q 649 95 631 135 q 667 -8 667 56 q 585 -185 667 -111 q 378 -258 503 -258 q 154 -181 232 -258 q 85 -3 85 -111 l 265 -3 q 301 -84 265 -51 q 383 -117 336 -117 q 458 -90 433 -117 q 483 -25 483 -64 q 369 88 483 31 q 157 200 186 179 q 42 392 42 281 q 81 507 42 458 q 168 578 108 540 q 119 658 135 615 q 103 750 103 701 q 185 919 103 858 q 389 981 268 981 q 578 907 504 981 q 651 732 651 833 l 481 732 q 450 808 485 779 q 367 836 415 836 q 299 817 328 836 q 271 760 271 797 q 385 658 271 714 q 596 549 568 568 q 711 367 711 469 m 544 317 q 471 407 544 365 q 261 507 350 464 q 206 431 206 481 q 314 317 206 374 q 486 231 400 274 q 528 269 513 247 q 544 317 544 292 z "},"•":{"ha":675,"x_min":142,"x_max":518,"o":"m 518 496 q 465 363 518 418 q 331 308 411 308 q 196 363 250 308 q 142 496 142 417 q 195 631 142 576 q 331 686 249 686 q 464 631 410 686 q 518 496 518 575 z "},"¶":{"ha":860,"x_min":58,"x_max":713,"o":"m 713 831 l 631 831 l 631 -212 l 535 -212 l 535 831 l 446 831 l 446 -212 l 347 -212 l 347 363 q 167 424 253 363 q 58 632 58 501 q 138 843 58 761 q 342 925 217 925 l 713 925 l 713 831 z "},"ß":{"ha":689,"x_min":46,"x_max":650,"o":"m 650 261 q 585 71 650 144 q 375 -11 513 -11 q 339 -8 353 -11 q 299 3 325 -6 l 310 165 q 351 160 328 160 q 440 197 404 160 q 475 285 475 233 q 438 381 475 342 q 342 421 401 421 l 342 578 q 414 615 389 578 q 439 700 439 651 q 412 772 439 738 q 347 807 385 807 q 264 776 300 807 q 228 708 228 746 l 228 0 l 46 0 l 46 660 q 110 876 46 789 q 328 979 185 979 q 539 896 461 979 q 613 694 613 817 q 580 584 613 633 q 486 507 547 535 q 608 415 567 483 q 650 261 650 346 z "},"®":{"ha":1003,"x_min":6,"x_max":996,"o":"m 996 469 q 851 119 996 264 q 500 -25 707 -25 q 149 119 293 -25 q 6 469 6 263 q 149 823 6 678 q 500 968 293 968 q 851 824 707 968 q 996 469 996 679 m 879 469 q 771 744 879 638 q 500 851 663 851 q 230 744 338 851 q 122 469 122 636 q 229 199 122 304 q 500 93 336 93 q 770 199 661 93 q 879 469 879 306 m 754 576 q 613 436 754 436 l 739 218 l 613 218 l 497 436 l 418 436 l 418 218 l 303 218 l 303 735 l 553 735 q 699 708 657 735 q 754 576 754 674 m 646 592 q 615 635 646 626 q 529 644 583 644 l 418 644 l 418 514 l 556 514 q 624 529 603 514 q 646 592 646 544 z "},"©":{"ha":1003,"x_min":6,"x_max":996,"o":"m 996 469 q 851 119 996 264 q 500 -25 707 -25 q 149 119 293 -25 q 6 469 6 263 q 149 823 6 678 q 500 968 293 968 q 851 824 707 968 q 996 469 996 679 m 879 469 q 771 744 879 638 q 500 851 663 851 q 230 744 338 851 q 122 469 122 636 q 229 199 122 304 q 500 93 336 93 q 770 199 661 93 q 879 469 879 306 m 754 382 q 678 243 744 296 q 521 190 611 190 q 322 272 397 190 q 246 475 246 353 q 319 682 246 601 q 518 763 393 763 q 675 713 611 763 q 754 574 739 664 l 642 574 q 599 642 633 618 q 518 667 565 667 q 406 611 447 667 q 364 478 364 556 q 408 344 364 403 q 521 286 451 286 q 606 312 569 286 q 642 382 642 338 l 754 382 z "},"™":{"ha":1074,"x_min":46,"x_max":1013,"o":"m 1013 393 l 913 393 l 913 761 l 781 393 l 721 393 l 589 763 l 589 393 l 488 393 l 488 849 l 647 849 l 750 581 l 853 849 l 1013 849 l 1013 393 m 432 761 l 293 761 l 293 393 l 185 393 l 185 761 l 46 761 l 46 849 l 432 849 l 432 761 z "},"´":{"ha":461,"x_min":157,"x_max":418,"o":"m 418 900 l 242 708 l 157 708 l 253 900 l 418 900 z "},"¨":{"ha":660,"x_min":35,"x_max":633,"o":"m 633 965 q 600 881 633 915 q 517 846 567 846 q 432 879 467 846 q 397 963 397 913 q 431 1047 397 1013 q 514 1082 464 1082 q 599 1049 564 1082 q 633 965 633 1015 m 271 965 q 238 881 271 915 q 154 846 204 846 q 69 879 104 846 q 35 963 35 913 q 68 1047 35 1013 q 151 1082 101 1082 q 236 1049 201 1082 q 271 965 271 1015 z "},"Æ":{"ha":975,"x_min":32,"x_max":939,"o":"m 939 4 l 592 4 q 495 55 542 4 q 449 165 449 106 l 449 226 l 254 226 l 178 4 l 32 4 l 344 978 l 939 976 l 939 788 l 649 788 l 649 614 l 924 614 l 924 425 l 649 424 l 649 203 l 939 201 l 939 4 m 449 365 l 449 825 l 300 367 l 449 365 z "},"Ø":{"ha":1079,"x_min":-31,"x_max":1082,"o":"m 1082 967 l 911 794 q 1025 475 1025 657 q 893 147 1025 290 q 528 -10 749 -10 q 361 18 444 -10 q 218 94 278 46 l 110 -14 l -31 -14 l 146 165 q 58 315 90 233 q 26 483 26 397 q 174 826 26 678 q 508 975 321 975 q 690 951 615 975 q 836 868 765 926 l 933 967 l 1082 967 m 821 475 q 767 649 821 574 l 360 238 q 440 201 397 213 q 529 189 482 189 q 738 271 654 189 q 821 475 821 353 m 693 722 q 613 760 658 744 q 525 775 568 775 q 317 681 406 775 q 229 471 229 588 q 286 308 229 388 l 693 722 z "},"±":{"ha":681,"x_min":40,"x_max":649,"o":"m 646 503 l 442 503 l 442 247 l 254 247 l 254 503 l 46 503 l 46 703 l 254 703 l 254 953 l 436 953 l 436 703 l 646 703 l 646 503 m 649 51 l 40 51 l 40 207 l 649 207 l 649 51 z "},"¥":{"ha":761,"x_min":18,"x_max":740,"o":"m 740 925 l 474 415 l 474 389 l 632 389 l 632 315 l 474 315 l 474 264 l 632 264 l 632 190 l 474 190 l 474 0 l 288 0 l 288 190 l 131 190 l 131 264 l 288 264 l 288 315 l 131 315 l 131 389 l 288 389 l 288 415 l 18 925 l 231 925 l 389 551 l 535 925 l 740 925 z "},"µ":{"ha":850,"x_min":-18,"x_max":822,"o":"m 822 693 l 711 226 l 757 242 l 757 96 q 614 38 675 61 q 411 -8 494 -8 q 326 19 367 -8 q 261 86 286 47 q 176 -39 229 53 q 129 -125 160 -69 q 64 -132 94 -128 q -18 -149 33 -136 q 88 68 65 7 q 128 215 108 143 l 258 693 l 394 693 l 274 228 q 271 210 271 214 q 313 147 271 171 q 400 124 354 124 q 503 147 457 124 q 560 206 550 169 l 688 693 l 822 693 z "},"ª":{"ha":424,"x_min":40,"x_max":375,"o":"m 372 721 l 279 721 l 279 743 q 190 714 240 714 q 84 763 128 714 q 40 876 40 813 q 89 996 40 950 q 203 1042 138 1042 q 323 994 274 1042 q 372 886 372 946 l 372 721 m 375 528 l 49 528 l 49 632 l 375 632 l 375 528 m 281 871 q 260 922 281 900 q 210 944 239 944 q 153 924 175 944 q 131 871 131 903 q 152 820 131 840 q 203 800 174 800 q 256 822 232 800 q 281 871 281 843 z "},"º":{"ha":493,"x_min":49,"x_max":385,"o":"m 385 886 q 340 767 385 818 q 229 717 294 717 q 112 762 163 717 q 61 872 61 807 q 106 990 61 940 q 215 1040 150 1040 q 335 997 286 1040 q 385 886 385 953 m 375 528 l 49 528 l 49 632 l 375 632 l 375 528 m 293 882 q 269 931 293 911 q 215 950 246 950 q 167 926 186 950 q 147 872 147 903 q 171 824 147 843 q 226 804 194 804 q 275 825 257 804 q 293 882 293 846 z "},"æ":{"ha":1244,"x_min":47,"x_max":1181,"o":"m 1181 378 q 1153 292 1181 315 q 1067 268 1125 268 l 707 268 q 766 185 726 215 q 856 154 806 154 q 915 167 886 154 q 964 208 943 181 l 1165 208 q 1048 59 1126 114 q 872 4 969 4 q 782 12 822 4 q 701 40 742 19 l 701 7 l 519 7 l 519 50 q 433 8 478 21 q 339 -6 388 -6 q 135 92 224 -6 q 47 311 47 190 q 140 548 47 451 q 367 644 232 644 q 500 617 436 644 q 611 540 564 590 q 715 624 651 593 q 850 656 779 656 q 1068 575 964 656 q 1181 378 1181 489 m 1024 382 q 953 465 997 433 q 853 497 908 497 q 758 464 801 497 q 701 382 715 431 l 1024 382 m 522 308 q 478 410 522 367 q 372 454 435 454 q 271 410 314 454 q 228 308 228 365 q 266 208 228 249 q 367 167 304 167 q 474 207 425 167 q 522 308 522 247 z "},"ø":{"ha":719,"x_min":10,"x_max":722,"o":"m 722 617 l 621 513 q 669 426 651 472 q 686 332 686 381 q 592 92 686 189 q 376 -4 499 -4 q 176 54 257 -4 l 147 28 l 10 28 l 103 126 q 56 211 74 167 q 39 304 39 256 q 128 542 39 442 q 349 642 217 642 q 550 582 465 642 l 583 617 l 722 617 m 504 325 q 490 378 504 353 l 300 182 q 333 172 314 175 q 369 169 351 169 q 465 215 426 169 q 504 325 504 260 m 418 449 q 385 458 404 456 q 349 461 367 461 q 252 415 292 461 q 213 306 213 368 q 215 278 213 289 q 226 253 217 272 l 418 449 z "},"¿":{"ha":746,"x_min":50,"x_max":649,"o":"m 458 608 q 426 530 458 563 q 340 497 393 497 q 260 532 290 497 q 229 610 229 567 q 258 694 229 661 q 343 728 288 728 q 426 694 393 728 q 458 608 458 660 m 649 39 q 558 -177 649 -90 q 339 -264 467 -264 q 140 -182 226 -264 q 50 25 50 -96 q 104 191 50 115 q 244 301 158 267 l 244 458 l 442 458 l 442 283 q 346 144 442 189 q 250 26 250 100 q 275 -40 250 -11 q 336 -69 300 -69 q 418 -39 383 -69 q 453 39 453 -8 l 649 39 z "},"¡":{"ha":385,"x_min":47,"x_max":281,"o":"m 281 522 q 247 440 281 474 q 164 406 213 406 q 81 440 115 406 q 47 522 47 474 q 81 605 47 571 q 164 639 115 639 q 247 605 213 639 q 281 522 281 571 m 271 -361 l 68 -361 l 68 358 l 271 358 l 271 -361 z "},"¬":{"ha":1667,"x_min":54,"x_max":1614,"o":"m 1614 -115 l 54 -115 l 54 947 l 1614 947 l 1614 -115 m 1482 354 l 1482 379 q 1460 379 1467 379 q 1419 386 1431 379 q 1408 424 1408 393 l 1408 771 q 1408 799 1408 785 q 1407 825 1407 813 q 1420 869 1407 858 q 1482 879 1433 879 l 1482 904 l 1260 904 l 1260 879 q 1322 869 1311 879 q 1333 818 1333 860 q 1333 785 1333 797 l 1333 426 q 1320 388 1333 396 q 1279 379 1307 379 q 1260 379 1267 379 l 1260 354 l 1482 354 m 1585 38 q 1476 129 1585 107 q 1368 199 1368 151 q 1390 245 1368 228 q 1442 263 1411 263 q 1485 252 1464 263 q 1522 222 1506 242 q 1528 199 1526 203 q 1529 174 1529 190 l 1551 172 q 1556 224 1551 196 q 1561 268 1560 253 q 1450 286 1503 286 q 1351 261 1389 286 q 1307 172 1307 231 q 1415 78 1307 99 q 1522 7 1522 57 q 1497 -47 1522 -28 q 1436 -65 1472 -65 q 1357 -44 1378 -65 q 1336 33 1336 -24 l 1314 33 q 1311 -19 1314 18 q 1308 -60 1308 -56 q 1340 -83 1308 -74 q 1422 -92 1371 -92 q 1532 -61 1488 -92 q 1585 38 1585 -25 m 1307 256 l 1188 256 q 1189 323 1188 289 q 1194 388 1190 357 q 1253 449 1233 419 q 1278 529 1278 486 q 1118 665 1278 651 q 958 768 958 679 q 996 850 958 821 q 1089 879 1033 879 q 1150 869 1115 879 q 1203 843 1185 858 q 1210 796 1210 828 q 1210 768 1210 776 l 1235 768 q 1237 828 1235 810 q 1247 879 1239 846 q 1093 908 1174 908 q 951 868 1007 908 q 889 739 889 822 q 1049 603 889 618 q 1210 499 1210 588 q 1165 410 1210 440 q 1060 379 1121 379 q 988 390 1024 379 q 929 431 939 406 l 928 497 l 901 497 q 901 451 901 467 q 901 432 901 439 q 897 376 901 404 q 1044 347 968 347 q 1115 356 1082 347 q 1122 256 1122 300 q 1060 229 1096 240 l 1060 213 l 1122 213 l 1122 -6 q 1211 -92 1122 -92 q 1236 -89 1222 -92 q 1261 -83 1250 -86 l 1299 -36 l 1288 -21 q 1243 -42 1269 -42 q 1202 -22 1217 -42 q 1188 51 1188 -3 q 1188 69 1188 64 l 1188 219 q 1223 221 1199 219 q 1258 222 1247 222 q 1299 218 1279 222 l 1307 256 m 1114 -83 l 1114 -60 q 1063 -53 1074 -60 q 1051 -21 1051 -46 q 1053 25 1053 7 l 1053 153 q 924 286 1053 286 q 854 265 889 286 q 794 213 819 244 q 796 250 796 238 q 789 286 796 272 q 725 264 757 272 q 660 256 693 256 l 660 232 q 683 233 675 233 q 713 228 701 233 q 725 210 725 224 l 725 -29 q 718 -53 725 -44 q 689 -61 711 -61 q 660 -60 669 -60 l 660 -83 l 860 -83 l 858 -60 q 803 -48 817 -60 q 790 -4 790 -36 q 792 28 790 4 q 793 69 793 53 q 793 108 793 96 q 807 197 793 172 q 894 236 829 236 q 968 204 947 236 q 985 118 985 178 l 985 43 q 985 26 985 32 q 979 -83 985 -35 l 1114 -83 m 944 879 l 944 904 l 779 904 l 779 879 q 824 876 799 879 q 849 861 849 872 q 796 647 849 826 q 740 467 768 557 l 579 908 l 560 908 l 390 471 q 346 663 368 564 q 307 844 324 761 q 303 858 301 853 q 324 876 303 872 q 354 879 344 879 q 371 879 367 879 l 371 904 l 172 904 l 172 879 q 217 870 208 879 q 235 821 226 861 q 265 699 249 761 q 310 492 304 553 q 228 447 278 492 q 164 367 179 401 q 156 338 158 353 q 154 296 154 322 q 154 254 154 267 l 99 226 l 99 213 l 154 218 l 156 6 q 144 -49 156 -39 q 86 -60 132 -60 l 86 -83 l 301 -83 l 301 -60 q 278 -60 285 -60 q 243 -57 251 -60 q 221 -3 221 -49 l 222 219 q 271 219 246 219 q 321 218 296 218 l 328 253 l 325 256 l 222 256 l 222 306 q 222 340 222 329 q 234 410 222 385 q 283 435 246 435 q 324 422 307 435 l 339 347 l 379 347 q 458 564 417 458 q 549 779 489 643 q 629 565 561 743 q 704 347 681 429 l 746 347 q 821 622 767 432 q 904 874 885 844 q 944 879 914 879 m 676 111 q 626 238 676 189 q 497 286 576 286 q 356 236 413 286 q 299 101 299 186 q 346 -36 299 19 q 474 -92 393 -92 q 619 -35 563 -92 q 676 111 676 22 m 603 78 q 581 -18 603 21 q 499 -65 553 -65 q 401 3 435 -65 q 375 128 375 56 q 401 222 375 182 q 479 263 428 263 q 578 200 546 263 q 603 78 603 151 z "},"ƒ":{"ha":563,"x_min":19,"x_max":519,"o":"m 519 847 q 390 833 432 847 q 349 781 349 818 l 349 561 l 453 561 l 453 404 l 350 404 l 350 -8 q 289 -165 350 -93 q 96 -253 215 -253 l 19 -253 l 19 -97 q 150 -74 107 -97 q 193 6 193 -50 l 193 404 l 81 404 l 81 561 l 193 561 l 193 776 q 250 935 193 868 q 418 1010 314 1010 l 519 1010 l 519 847 z "},"«":{"ha":689,"x_min":43,"x_max":643,"o":"m 643 106 l 493 106 l 322 315 l 489 521 l 643 521 l 481 313 l 643 106 m 367 108 l 214 108 l 43 322 l 208 526 l 361 526 l 201 319 l 367 108 z "},"»":{"ha":689,"x_min":43,"x_max":643,"o":"m 643 313 l 472 103 l 319 103 l 493 315 l 328 521 l 483 521 l 643 313 m 367 319 l 199 108 l 43 108 l 208 318 l 46 524 l 201 524 l 367 319 z "},"…":{"ha":1042,"x_min":64,"x_max":985,"o":"m 985 115 q 951 33 985 67 q 869 0 918 0 q 788 33 821 0 q 754 115 754 67 q 788 197 754 164 q 869 231 821 231 q 951 197 918 231 q 985 115 985 164 m 640 113 q 605 33 640 65 q 519 0 569 0 q 440 35 472 0 q 407 121 407 71 q 442 201 407 168 q 528 233 478 233 q 608 198 575 233 q 640 113 640 163 m 297 108 q 263 26 297 60 q 181 -8 229 -8 q 98 26 132 -8 q 64 108 64 60 q 98 191 64 157 q 181 225 132 225 q 263 191 229 225 q 297 108 297 157 z "}," ":{"ha":694,"x_min":0,"x_max":0,"o":""},"À":{"ha":822,"x_min":6,"x_max":808,"o":"m 808 0 l 600 0 l 549 185 l 268 185 l 214 0 l 6 0 l 265 860 q 314 943 281 910 q 403 981 353 981 q 503 940 458 981 q 558 849 542 904 l 808 0 m 493 364 l 410 783 l 318 364 l 493 364 m 531 1022 l 443 1022 l 269 1214 l 436 1214 l 531 1022 z "},"Ã":{"ha":822,"x_min":6,"x_max":808,"o":"m 808 0 l 600 0 l 549 185 l 268 185 l 214 0 l 6 0 l 265 860 q 314 943 281 910 q 403 981 353 981 q 503 940 458 981 q 558 849 542 904 l 808 0 m 493 364 l 410 783 l 318 364 l 493 364 m 714 1207 q 642 1085 699 1133 q 504 1036 586 1036 q 365 1072 482 1036 q 264 1090 307 1090 q 207 1064 231 1090 q 181 1033 193 1049 l 108 1033 q 176 1146 117 1099 q 306 1193 236 1193 q 394 1179 347 1193 q 536 1144 511 1144 q 604 1163 582 1144 q 639 1207 614 1171 l 714 1207 z "},"Õ":{"ha":1079,"x_min":31,"x_max":1026,"o":"m 1026 489 q 897 150 1026 296 q 544 -7 758 -7 q 189 121 338 -7 q 31 472 31 257 q 180 833 31 685 q 531 981 329 981 q 877 833 728 981 q 1026 489 1026 685 m 822 489 q 735 688 822 600 q 536 776 649 776 q 320 684 407 776 q 233 472 233 592 q 325 265 233 347 q 535 188 411 188 q 735 268 653 188 q 822 489 822 354 m 839 1199 q 767 1076 824 1125 q 629 1028 711 1028 q 490 1064 607 1028 q 389 1082 432 1082 q 332 1056 356 1082 q 306 1025 318 1040 l 233 1025 q 301 1138 242 1090 q 431 1185 361 1185 q 519 1171 472 1185 q 661 1136 636 1136 q 729 1154 707 1136 q 764 1199 739 1163 l 839 1199 z "},"Œ":{"ha":1242,"x_min":28,"x_max":1199,"o":"m 1199 -3 l 831 -3 q 785 7 807 -3 q 746 35 764 17 q 642 1 699 10 q 517 -8 586 -8 q 167 136 301 -8 q 28 526 28 285 q 185 839 28 693 q 479 976 333 976 q 621 970 564 976 q 719 939 678 964 q 767 981 736 964 q 831 999 797 999 l 1199 999 l 1199 800 l 897 800 l 897 624 l 1183 624 l 1183 428 l 897 428 l 897 199 l 1199 199 l 1199 -3 m 690 238 l 690 724 q 611 764 653 749 q 529 779 569 779 q 317 689 404 779 q 229 483 229 599 q 312 274 229 357 q 525 192 394 192 q 613 202 574 192 q 690 238 651 213 z "},"œ":{"ha":1188,"x_min":38,"x_max":1150,"o":"m 1150 381 q 1129 304 1150 331 q 1035 269 1101 269 l 679 269 q 726 191 679 226 q 824 156 772 156 q 886 170 860 156 q 932 210 913 185 l 1133 210 q 1012 58 1094 113 q 828 4 929 4 q 697 30 761 4 q 590 101 633 56 q 492 32 546 57 q 375 7 438 7 q 140 90 238 7 q 38 315 38 179 q 128 556 38 460 q 347 653 219 653 q 592 556 497 653 q 701 629 636 604 q 843 654 767 654 q 1047 574 950 654 q 1150 381 1150 488 m 992 383 q 924 465 964 436 q 824 499 878 499 q 723 463 769 499 q 676 383 676 428 l 992 383 m 504 328 q 459 431 504 389 q 353 474 414 474 q 252 427 293 474 q 211 317 211 381 q 258 219 211 257 q 368 181 304 181 q 463 226 421 181 q 504 328 504 271 z "},"–":{"ha":806,"x_min":10,"x_max":769,"o":"m 769 228 l 10 228 l 10 372 l 769 372 l 769 228 z "},"—":{"ha":1438,"x_min":17,"x_max":1406,"o":"m 1406 228 l 19 228 l 17 372 l 1403 372 l 1406 228 z "},"“":{"ha":618,"x_min":50,"x_max":549,"o":"m 549 696 q 519 617 549 650 q 443 583 490 583 q 354 617 389 583 q 319 699 319 650 q 321 724 319 717 q 333 751 324 735 l 475 968 l 543 968 l 481 808 q 531 762 514 793 q 549 696 549 731 m 282 682 q 249 603 282 629 q 163 576 215 576 q 85 606 119 576 q 50 678 50 635 q 68 749 50 721 l 208 960 l 276 960 l 214 797 q 264 750 246 782 q 282 682 282 718 z "},"”":{"ha":618,"x_min":82,"x_max":579,"o":"m 579 839 q 570 794 579 818 q 544 749 561 771 l 410 567 l 346 567 l 413 735 q 364 787 381 761 q 347 846 347 813 q 382 921 347 885 q 463 957 417 957 q 546 922 513 957 q 579 839 579 888 m 318 853 q 283 758 318 806 l 147 572 l 82 572 l 150 738 q 88 849 88 785 q 119 928 88 894 q 203 961 151 961 q 283 928 249 961 q 318 853 318 894 z "},"‘":{"ha":361,"x_min":67,"x_max":292,"o":"m 292 681 q 258 603 292 633 q 174 572 225 572 q 97 608 126 572 q 67 693 67 643 q 70 718 67 706 q 88 751 74 731 l 217 963 l 282 963 l 222 797 q 292 681 292 756 z "},"’":{"ha":361,"x_min":65,"x_max":292,"o":"m 292 856 q 290 824 292 838 q 269 783 288 810 l 139 589 l 68 589 l 131 751 q 82 801 99 774 q 65 864 65 828 q 99 941 65 907 q 185 975 133 975 q 263 942 233 975 q 292 856 292 908 z "},"÷":{"ha":806,"x_min":60,"x_max":715,"o":"m 497 771 q 466 695 497 722 q 389 668 435 668 q 308 696 339 668 q 276 775 276 724 q 310 855 276 822 q 389 888 344 888 q 465 851 433 888 q 497 771 497 815 m 715 350 l 60 350 l 60 585 l 715 585 l 715 350 m 504 146 q 473 70 504 97 q 396 43 442 43 q 315 71 346 43 q 283 150 283 99 q 317 230 283 197 q 396 263 351 263 q 472 226 440 263 q 504 146 504 190 z "},"ÿ":{"ha":689,"x_min":28,"x_max":642,"o":"m 624 -76 q 527 -274 624 -194 q 307 -354 431 -354 q 115 -263 201 -354 q 28 -57 28 -172 l 214 -57 q 248 -142 214 -108 q 329 -176 282 -176 q 412 -138 385 -176 q 439 -31 439 -100 q 435 28 439 -4 q 301 -7 374 -7 q 135 57 206 -7 q 54 242 54 129 l 54 626 l 242 626 l 242 253 q 272 196 242 221 q 340 171 303 171 q 408 195 379 171 q 436 265 436 219 l 436 632 l 624 632 l 624 -76 m 642 832 q 608 747 642 782 q 525 713 575 713 q 440 746 475 713 q 406 829 406 779 q 439 914 406 879 q 522 949 472 949 q 607 915 572 949 q 642 832 642 882 m 279 832 q 246 747 279 782 q 163 713 213 713 q 78 746 113 713 q 43 829 43 779 q 76 914 43 879 q 160 949 110 949 q 244 915 210 949 q 279 832 279 882 z "},"Ÿ":{"ha":746,"x_min":6,"x_max":735,"o":"m 735 968 l 461 399 l 461 0 l 268 0 l 268 410 l 6 968 l 228 968 l 369 635 l 524 968 l 735 968 m 686 1158 q 653 1074 686 1108 q 569 1039 619 1039 q 485 1072 519 1039 q 450 1156 450 1106 q 483 1240 450 1206 q 567 1275 517 1275 q 651 1242 617 1275 q 686 1158 686 1208 m 324 1158 q 290 1074 324 1108 q 207 1039 257 1039 q 122 1072 157 1039 q 88 1156 88 1106 q 121 1240 88 1206 q 204 1275 154 1275 q 289 1242 254 1275 q 324 1158 324 1208 z "},"∕":{"ha":856,"x_min":-14,"x_max":807,"o":"m 807 993 l 106 -8 l -14 -8 l 672 993 l 807 993 z "},"¤":{"ha":956,"x_min":68,"x_max":886,"o":"m 886 213 l 803 122 l 710 214 q 481 139 619 139 q 246 215 338 139 l 154 124 l 68 211 l 160 303 q 90 525 90 394 q 108 653 90 593 q 160 756 125 714 l 68 849 l 154 936 l 247 843 q 481 915 342 915 q 704 843 617 915 l 797 936 l 883 850 l 797 763 q 852 654 832 717 q 872 528 872 592 q 851 404 872 464 q 794 304 831 344 l 886 213 m 699 521 q 637 678 699 614 q 481 743 575 743 q 325 678 388 743 q 263 521 263 613 q 324 370 263 428 q 481 313 386 313 q 638 369 576 313 q 699 521 699 426 z "},"‹":{"ha":476,"x_min":36,"x_max":376,"o":"m 376 203 l 275 103 l 36 444 l 275 788 l 372 690 l 197 444 l 376 203 z "},"›":{"ha":476,"x_min":122,"x_max":456,"o":"m 456 444 l 217 103 l 122 203 l 301 444 l 126 690 l 217 788 l 456 444 z "},"":{"ha":611,"x_min":63,"x_max":546,"o":"m 546 0 l 361 0 l 361 453 l 244 453 l 244 -1 l 63 -1 l 63 756 q 140 897 63 828 q 307 965 218 965 l 369 965 l 369 800 q 346 803 356 803 q 276 780 307 803 q 244 715 244 757 l 244 621 l 546 621 l 546 0 z "},"":{"ha":650,"x_min":63,"x_max":606,"o":"m 606 0 l 415 0 l 415 821 q 393 822 410 822 q 300 807 340 822 q 244 743 244 786 l 244 635 l 369 635 l 369 467 l 244 467 l 244 0 l 63 0 l 63 774 q 141 913 63 847 q 301 979 219 979 l 606 979 l 606 0 z "},"‡":{"ha":768,"x_min":46,"x_max":711,"o":"m 711 46 l 469 46 l 469 -242 l 293 -242 l 285 -242 l 285 46 l 46 46 l 46 196 l 285 196 l 285 526 l 46 529 l 46 675 l 285 675 l 285 963 l 469 963 l 469 675 l 711 672 l 711 525 l 469 524 l 469 196 l 711 193 l 711 46 z "},"·":{"ha":486,"x_min":118,"x_max":340,"o":"m 340 504 q 308 424 340 456 q 229 393 275 393 q 149 423 181 393 q 118 504 118 453 q 151 582 118 550 q 229 614 185 614 q 308 581 275 614 q 340 504 340 549 z "},"‚":{"ha":346,"x_min":57,"x_max":283,"o":"m 283 100 q 280 59 283 72 q 260 21 276 46 l 131 -168 l 60 -168 l 122 -6 q 74 44 92 17 q 57 104 57 72 q 90 184 57 150 q 179 218 122 218 q 254 181 225 218 q 283 100 283 143 z "},"„":{"ha":579,"x_min":47,"x_max":542,"o":"m 542 99 q 535 52 542 76 q 514 8 529 28 l 375 -178 l 311 -178 l 378 -10 q 313 99 313 42 q 346 176 313 140 q 431 213 379 213 q 510 180 479 213 q 542 99 542 147 m 282 107 q 249 15 282 61 l 113 -172 l 47 -172 l 115 -7 q 53 101 53 42 q 87 181 53 146 q 167 217 121 217 q 247 185 213 217 q 282 107 282 153 z "},"‰":{"ha":1789,"x_min":56,"x_max":1708,"o":"m 1708 221 q 1635 56 1708 128 q 1471 -15 1563 -15 q 1303 51 1374 -15 q 1232 215 1232 117 q 1306 390 1232 318 q 1482 461 1381 461 q 1642 389 1575 461 q 1708 221 1708 317 m 1160 221 q 1087 56 1160 128 q 922 -15 1014 -15 q 754 51 825 -15 q 683 215 683 117 q 758 390 683 318 q 933 461 832 461 q 1093 389 1026 461 q 1160 221 1160 317 m 985 976 l 379 -11 l 236 -11 l 840 976 l 985 976 m 538 722 q 467 556 538 625 q 294 486 396 486 q 126 552 197 486 q 56 717 56 618 q 130 890 56 819 q 306 960 204 960 q 469 888 400 960 q 538 722 538 817 m 1581 231 q 1545 292 1581 264 q 1467 321 1510 321 q 1399 290 1424 321 q 1374 221 1374 260 q 1401 144 1374 172 q 1474 115 1428 115 q 1550 146 1519 115 q 1581 231 1581 176 m 1032 231 q 997 292 1032 264 q 918 321 961 321 q 850 290 875 321 q 825 221 825 260 q 852 144 825 172 q 925 115 879 115 q 1001 146 971 115 q 1032 231 1032 176 m 404 732 q 369 794 404 765 q 290 822 333 822 q 222 792 247 822 q 197 722 197 761 q 224 645 197 674 q 297 617 251 617 q 374 647 343 617 q 404 732 404 678 z "},"Â":{"ha":822,"x_min":6,"x_max":808,"o":"m 808 0 l 600 0 l 549 185 l 268 185 l 214 0 l 6 0 l 265 860 q 314 943 281 910 q 403 981 353 981 q 503 940 458 981 q 558 849 542 904 l 808 0 m 493 364 l 410 783 l 318 364 l 493 364 m 600 1003 l 513 1003 l 396 1122 l 279 1003 l 190 1003 l 322 1192 l 469 1192 l 600 1003 z "},"Ê":{"ha":618,"x_min":74,"x_max":564,"o":"m 564 0 l 225 0 q 115 48 157 0 q 74 157 74 96 l 74 800 q 108 920 74 872 q 200 968 143 968 l 564 968 l 564 776 l 274 776 l 274 606 l 549 606 l 549 417 l 274 417 l 274 194 l 564 194 l 564 0 m 550 1019 l 463 1019 l 346 1139 l 229 1019 l 140 1019 l 272 1208 l 419 1208 l 550 1019 z "},"Á":{"ha":822,"x_min":6,"x_max":808,"o":"m 808 0 l 600 0 l 549 185 l 268 185 l 214 0 l 6 0 l 265 860 q 314 943 281 910 q 403 981 353 981 q 503 940 458 981 q 558 849 542 904 l 808 0 m 493 364 l 410 783 l 318 364 l 493 364 m 525 1214 l 349 1022 l 264 1022 l 360 1214 l 525 1214 z "},"Ë":{"ha":618,"x_min":26,"x_max":625,"o":"m 564 0 l 225 0 q 115 48 157 0 q 74 157 74 96 l 74 800 q 108 920 74 872 q 200 968 143 968 l 564 968 l 564 776 l 274 776 l 274 606 l 549 606 l 549 417 l 274 417 l 274 194 l 564 194 l 564 0 m 625 1146 q 592 1061 625 1096 q 508 1026 558 1026 q 424 1060 458 1026 q 389 1143 389 1093 q 422 1228 389 1193 q 506 1263 456 1263 q 590 1229 556 1263 q 625 1146 625 1196 m 263 1146 q 229 1061 263 1096 q 146 1026 196 1026 q 61 1060 96 1026 q 26 1143 26 1093 q 60 1228 26 1193 q 143 1263 93 1263 q 228 1229 193 1263 q 263 1146 263 1196 z "},"È":{"ha":618,"x_min":74,"x_max":564,"o":"m 500 1013 l 413 1013 l 239 1204 l 406 1204 l 500 1013 m 479 1022 l 392 1022 l 218 1214 l 385 1214 l 479 1022 m 564 0 l 225 0 q 115 48 157 0 q 74 157 74 96 l 74 800 q 108 920 74 872 q 200 968 143 968 l 564 968 l 564 776 l 274 776 l 274 606 l 549 606 l 549 417 l 274 417 l 274 194 l 564 194 l 564 0 z "},"Í":{"ha":361,"x_min":57,"x_max":318,"o":"m 276 -3 l 71 -3 l 71 963 l 276 963 l 276 -3 m 318 1213 l 142 1021 l 57 1021 l 153 1213 l 318 1213 z "},"Î":{"ha":361,"x_min":-28,"x_max":382,"o":"m 276 -3 l 71 -3 l 71 963 l 276 963 l 276 -3 m 382 1024 l 294 1024 l 178 1143 l 61 1024 l -28 1024 l 104 1213 l 251 1213 l 382 1024 z "},"Ï":{"ha":361,"x_min":-118,"x_max":481,"o":"m 276 -3 l 71 -3 l 71 963 l 276 963 l 276 -3 m 481 1146 q 447 1061 481 1096 q 364 1026 414 1026 q 279 1060 314 1026 q 244 1143 244 1093 q 278 1228 244 1193 q 361 1263 311 1263 q 446 1229 411 1263 q 481 1146 481 1196 m 118 1146 q 85 1061 118 1096 q 1 1026 51 1026 q -83 1060 -49 1026 q -118 1143 -118 1093 q -85 1228 -118 1193 q -1 1263 -51 1263 q 83 1229 49 1263 q 118 1146 118 1196 z "},"Ì":{"ha":361,"x_min":19,"x_max":281,"o":"m 276 -3 l 71 -3 l 71 963 l 276 963 l 276 -3 m 281 1029 l 193 1029 l 19 1221 l 186 1221 l 281 1029 z "},"Ó":{"ha":1079,"x_min":31,"x_max":1026,"o":"m 1026 489 q 897 150 1026 296 q 544 -7 758 -7 q 189 121 338 -7 q 31 472 31 257 q 180 833 31 685 q 531 981 329 981 q 877 833 728 981 q 1026 489 1026 685 m 822 489 q 735 688 822 600 q 536 776 649 776 q 320 684 407 776 q 233 472 233 592 q 325 265 233 347 q 535 188 411 188 q 735 268 653 188 q 822 489 822 354 m 651 1213 l 475 1021 l 390 1021 l 486 1213 l 651 1213 z "},"Ô":{"ha":1079,"x_min":31,"x_max":1026,"o":"m 1026 489 q 897 150 1026 296 q 544 -7 758 -7 q 189 121 338 -7 q 31 472 31 257 q 180 833 31 685 q 531 981 329 981 q 877 833 728 981 q 1026 489 1026 685 m 822 489 q 735 688 822 600 q 536 776 649 776 q 320 684 407 776 q 233 472 233 592 q 325 265 233 347 q 535 188 411 188 q 735 268 653 188 q 822 489 822 354 m 717 1019 l 629 1019 l 513 1139 l 396 1019 l 307 1019 l 439 1208 l 586 1208 l 717 1019 z "},"Ò":{"ha":1079,"x_min":31,"x_max":1026,"o":"m 1026 489 q 897 150 1026 296 q 544 -7 758 -7 q 189 121 338 -7 q 31 472 31 257 q 180 833 31 685 q 531 981 329 981 q 877 833 728 981 q 1026 489 1026 685 m 822 489 q 735 688 822 600 q 536 776 649 776 q 320 684 407 776 q 233 472 233 592 q 325 265 233 347 q 535 188 411 188 q 735 268 653 188 q 822 489 822 354 m 647 1018 l 560 1018 l 386 1210 l 553 1210 l 647 1018 z "},"Ú":{"ha":846,"x_min":61,"x_max":771,"o":"m 771 319 q 669 92 771 190 q 408 -12 563 -12 q 171 81 281 -12 q 61 296 61 174 l 64 965 l 265 965 l 265 313 q 310 219 265 260 q 413 179 354 179 q 519 220 476 179 q 561 311 561 261 l 561 965 l 771 965 l 771 319 m 543 1217 l 367 1025 l 282 1025 l 378 1217 l 543 1217 z "},"Û":{"ha":846,"x_min":61,"x_max":771,"o":"m 771 319 q 669 92 771 190 q 408 -12 563 -12 q 171 81 281 -12 q 61 296 61 174 l 64 965 l 265 965 l 265 313 q 310 219 265 260 q 413 179 354 179 q 519 220 476 179 q 561 311 561 261 l 561 965 l 771 965 l 771 319 m 617 1019 l 529 1019 l 413 1139 l 296 1019 l 207 1019 l 339 1208 l 486 1208 l 617 1019 z "},"Ù":{"ha":846,"x_min":61,"x_max":771,"o":"m 771 319 q 669 92 771 190 q 408 -12 563 -12 q 171 81 281 -12 q 61 296 61 174 l 64 965 l 265 965 l 265 313 q 310 219 265 260 q 413 179 354 179 q 519 220 476 179 q 561 311 561 261 l 561 965 l 771 965 l 771 319 m 543 1032 l 456 1032 l 282 1224 l 449 1224 l 543 1032 z "},"ı":{"ha":333,"x_min":76,"x_max":261,"o":"m 261 -3 l 76 -3 l 76 624 l 261 624 l 261 -3 z "},"ˆ":{"ha":461,"x_min":19,"x_max":429,"o":"m 429 711 l 342 711 l 225 831 l 108 711 l 19 711 l 151 900 l 299 900 l 429 711 z "},"˜":{"ha":708,"x_min":38,"x_max":643,"o":"m 643 1019 q 572 897 628 946 q 433 849 515 849 q 294 885 411 849 q 193 903 236 903 q 136 876 160 903 q 110 846 122 861 l 38 846 q 106 958 46 911 q 235 1006 165 1006 q 324 992 276 1006 q 465 957 440 957 q 533 975 511 957 q 568 1019 543 983 l 643 1019 z "},"¯":{"ha":597,"x_min":61,"x_max":519,"o":"m 519 633 l 61 633 l 61 839 l 519 839 l 519 633 z "},"˘":{"ha":757,"x_min":51,"x_max":700,"o":"m 700 833 q 562 619 639 683 q 381 556 485 556 q 157 647 250 556 q 51 826 81 722 l 183 826 q 251 732 217 779 q 374 681 299 681 q 518 761 456 681 q 569 833 554 814 l 700 833 z "},"˙":{"ha":333,"x_min":65,"x_max":268,"o":"m 268 794 q 239 724 268 753 q 167 694 210 694 q 96 724 126 694 q 65 794 65 753 q 95 866 65 836 q 167 896 125 896 q 238 866 208 896 q 268 794 268 836 z "},"˚":{"ha":431,"x_min":54,"x_max":360,"o":"m 360 897 q 318 778 360 828 q 207 728 276 728 q 96 777 138 728 q 54 897 54 826 q 96 1017 54 967 q 207 1067 138 1067 q 318 1018 276 1067 q 360 897 360 969 m 260 897 q 247 949 260 926 q 207 971 235 971 q 167 947 181 971 q 154 897 154 924 q 167 846 154 868 q 207 824 179 824 q 247 847 233 824 q 260 897 260 871 z "},"¸":{"ha":539,"x_min":107,"x_max":375,"o":"m 375 -151 q 338 -228 375 -189 q 258 -267 300 -267 q 165 -250 219 -267 q 107 -229 153 -246 l 151 -132 q 194 -157 174 -144 q 231 -169 215 -169 q 250 -169 240 -169 q 261 -151 261 -167 q 228 -115 261 -136 q 181 -92 208 -103 l 275 60 l 364 21 l 317 -58 l 308 -79 q 342 -100 308 -82 q 375 -151 375 -118 z "},"ʺ":{"ha":563,"x_min":51,"x_max":525,"o":"m 525 986 q 460 833 525 947 q 393 725 439 796 l 301 665 l 385 1006 q 417 1045 393 1026 q 461 1064 442 1064 q 506 1041 488 1064 q 525 986 525 1018 m 275 986 q 210 835 275 950 q 143 725 189 797 l 51 665 l 135 1006 q 169 1045 144 1026 q 214 1064 194 1064 q 257 1040 239 1064 q 275 986 275 1017 z "},"ˇ":{"ha":500,"x_min":42,"x_max":451,"o":"m 451 1017 l 321 828 l 174 828 l 42 1017 l 131 1017 l 247 897 l 364 1017 l 451 1017 z "},"Ł":{"ha":589,"x_min":19,"x_max":575,"o":"m 575 -6 l 217 -6 q 130 31 169 -6 q 90 107 90 68 l 90 421 l 19 382 l 19 536 l 90 575 l 90 957 l 290 957 l 290 683 l 368 725 l 368 572 l 290 529 l 290 179 l 575 179 l 575 -6 z "},"ł":{"ha":361,"x_min":8,"x_max":351,"o":"m 351 564 l 282 515 l 282 -1 l 76 -1 l 76 374 l 8 326 l 8 472 l 76 519 l 76 957 l 282 957 l 282 661 l 351 708 l 351 564 z "},"Š":{"ha":689,"x_min":67,"x_max":668,"o":"m 583 1232 l 453 1043 l 306 1043 l 174 1232 l 263 1232 l 379 1113 l 496 1232 l 583 1232 m 668 293 q 568 74 668 150 q 340 6 479 6 q 211 19 275 6 q 81 57 147 32 l 81 264 q 174 231 139 242 q 336 196 281 196 q 447 226 413 196 q 481 300 481 256 q 374 397 481 360 q 175 479 213 453 q 67 706 67 554 q 160 911 67 828 q 396 994 253 994 q 522 985 467 994 q 632 950 576 976 l 632 740 q 526 794 581 775 q 417 814 472 814 q 318 785 363 814 q 274 704 274 756 q 375 599 274 632 q 565 526 540 544 q 668 293 668 456 z "},"š":{"ha":540,"x_min":44,"x_max":489,"o":"m 489 176 q 414 28 489 85 q 244 -25 344 -25 q 54 29 131 -25 l 54 203 q 132 158 93 175 q 225 136 183 136 q 288 150 261 136 q 315 186 315 164 q 180 260 315 203 q 44 433 44 318 q 108 588 44 525 q 292 656 178 656 q 376 646 335 656 q 472 615 418 636 l 472 435 q 400 481 442 463 q 322 499 358 499 q 256 487 286 499 q 225 450 225 475 q 357 367 225 424 q 489 176 489 310 m 472 899 l 342 710 l 194 710 l 63 899 l 151 899 l 268 779 l 385 899 l 472 899 z "},"Ž":{"ha":719,"x_min":39,"x_max":669,"o":"m 669 833 q 663 785 669 807 q 643 740 657 763 l 285 188 l 657 188 l 657 0 l 154 0 q 71 42 103 0 q 39 139 39 83 q 64 219 39 181 l 421 779 l 63 779 l 63 965 l 553 965 q 633 923 596 965 q 669 833 669 881 m 569 1218 l 439 1029 l 292 1029 l 160 1218 l 249 1218 l 365 1099 l 482 1218 l 569 1218 z "},"ž":{"ha":589,"x_min":31,"x_max":544,"o":"m 544 524 q 541 486 544 503 q 524 454 538 469 l 282 174 l 543 174 l 543 0 l 125 0 q 58 33 85 0 q 31 106 31 67 q 54 179 31 151 l 307 464 l 54 464 l 54 635 l 432 635 q 513 601 481 635 q 544 524 544 568 m 485 894 l 354 706 l 207 706 l 75 894 l 164 894 l 281 775 l 397 894 l 485 894 z "},"¦":{"ha":389,"x_min":88,"x_max":276,"o":"m 275 603 l 88 603 l 88 931 l 275 931 l 275 603 m 276 83 l 89 83 l 89 411 l 276 411 l 276 83 z "},"Ð":{"ha":874,"x_min":-24,"x_max":813,"o":"m 813 486 q 724 204 813 325 q 535 49 653 107 q 365 0 438 0 l 204 0 q 110 40 151 0 q 68 126 68 81 l 68 433 l 21 433 q -24 496 -24 433 q -1 536 -24 522 q 21 544 6 540 l 68 544 l 68 832 q 115 919 68 876 q 219 963 163 963 l 389 963 q 665 828 531 963 q 813 486 813 681 m 608 486 q 528 688 608 610 q 265 776 436 776 l 265 544 l 342 544 q 365 529 353 544 q 378 489 378 514 q 365 449 378 464 q 342 433 353 433 l 265 433 l 265 190 q 290 188 279 189 q 307 188 300 188 q 520 274 432 188 q 608 486 608 361 z "},"ð":{"ha":767,"x_min":49,"x_max":717,"o":"m 692 450 q 717 335 717 393 q 622 101 717 206 q 401 -3 528 -3 q 153 93 257 -3 q 49 332 49 189 q 147 549 49 463 q 379 635 244 635 l 339 721 l 233 683 q 185 718 204 672 q 176 754 176 742 q 199 783 176 775 l 292 819 l 211 988 l 436 988 l 485 893 l 596 936 q 622 944 615 944 q 660 910 642 944 q 669 876 669 892 q 639 832 669 844 l 535 792 q 636 575 575 711 q 692 450 657 529 m 504 328 q 471 421 504 383 q 383 458 438 458 q 293 424 331 458 q 256 333 256 389 q 290 238 256 272 q 386 203 325 203 q 474 238 443 203 q 504 328 504 272 z "},"Ý":{"ha":746,"x_min":6,"x_max":735,"o":"m 735 968 l 461 399 l 461 0 l 268 0 l 268 410 l 6 968 l 228 968 l 369 635 l 524 968 l 735 968 m 510 1213 l 333 1021 l 249 1021 l 344 1213 l 510 1213 z "},"ý":{"ha":689,"x_min":28,"x_max":624,"o":"m 624 -76 q 527 -274 624 -194 q 307 -354 431 -354 q 115 -263 201 -354 q 28 -57 28 -172 l 214 -57 q 248 -142 214 -108 q 329 -176 282 -176 q 412 -138 385 -176 q 439 -31 439 -100 q 435 28 439 -4 q 301 -7 374 -7 q 135 57 206 -7 q 54 242 54 129 l 54 626 l 242 626 l 242 253 q 272 196 242 221 q 340 171 303 171 q 408 195 379 171 q 436 265 436 219 l 436 632 l 624 632 l 624 -76 m 476 892 l 300 700 l 215 700 l 311 892 l 476 892 z "},"Þ":{"ha":708,"x_min":75,"x_max":675,"o":"m 675 631 q 597 415 675 493 q 375 336 518 336 l 251 336 l 251 6 l 75 6 l 75 1074 l 251 1074 l 251 907 l 393 907 q 613 822 539 907 q 675 631 675 750 m 506 608 q 463 744 506 711 q 353 768 432 768 l 253 768 l 253 482 l 351 482 q 465 501 436 482 q 506 608 506 528 z "},"þ":{"ha":758,"x_min":83,"x_max":689,"o":"m 689 338 q 621 119 689 190 q 404 49 553 49 l 260 49 l 260 -201 l 83 -201 l 83 929 l 260 929 l 260 629 l 408 629 q 631 539 560 629 q 689 338 689 465 m 522 350 q 492 471 522 444 q 399 489 471 489 l 267 489 l 267 182 l 374 182 q 500 225 469 182 q 522 350 522 257 z "},"­":{"ha":938,"x_min":115,"x_max":771,"o":"m 771 156 l 115 156 l 115 390 l 771 390 l 771 156 z "},"×":{"ha":867,"x_min":67,"x_max":697,"o":"m 697 256 l 565 122 l 385 303 l 238 156 l 96 297 l 243 444 l 67 621 l 194 750 l 372 574 l 519 722 l 661 581 l 517 436 l 697 256 z "},"¹":{"ha":444,"x_min":118,"x_max":278,"o":"m 278 507 l 178 507 l 178 896 l 118 896 l 118 990 l 208 990 q 258 963 238 990 q 278 899 278 935 l 278 507 z "},"²":{"ha":746,"x_min":79,"x_max":379,"o":"m 379 878 q 318 746 379 813 q 207 632 263 689 l 378 631 l 378 533 l 124 533 q 93 556 107 533 q 79 599 79 578 q 179 743 79 642 q 279 883 279 844 q 265 915 279 900 q 231 931 251 931 q 194 915 208 931 q 179 875 179 899 l 79 875 q 124 984 79 939 q 232 1029 169 1029 q 337 984 294 1029 q 379 878 379 939 z "},"³":{"ha":746,"x_min":103,"x_max":404,"o":"m 404 697 q 361 589 404 631 q 253 547 318 547 q 147 592 186 547 q 103 701 108 636 l 200 701 q 216 660 200 675 q 257 646 232 646 q 294 659 279 646 q 310 696 310 672 q 268 750 310 733 q 226 804 226 767 q 251 844 226 832 q 306 897 306 872 q 290 933 306 918 q 251 947 274 947 q 224 937 236 947 q 207 900 213 926 l 110 900 q 151 1003 110 961 q 254 1044 193 1044 q 357 1001 315 1044 q 399 900 399 958 q 378 835 399 865 q 350 800 368 821 q 404 697 404 763 z "},"½":{"ha":875,"x_min":-14,"x_max":819,"o":"m 264 544 l 164 544 l 164 933 l 104 933 l 104 1028 l 194 1028 q 244 1000 224 1028 q 264 936 264 972 l 264 544 m 819 361 q 758 229 819 296 q 647 115 703 172 l 818 114 l 818 17 l 564 17 q 533 39 547 17 q 519 82 519 61 q 619 226 519 125 q 719 367 719 328 q 706 399 719 383 q 671 414 692 414 q 634 398 649 414 q 619 358 619 382 l 519 358 q 565 467 519 422 q 672 513 610 513 q 777 467 735 513 q 819 361 819 422 m 807 993 l 106 -8 l -14 -8 l 672 993 l 807 993 z "},"¼":{"ha":840,"x_min":-14,"x_max":807,"o":"m 250 504 l 150 504 l 150 893 l 90 893 l 90 988 l 181 988 q 230 960 210 988 q 250 896 250 932 l 250 504 m 807 993 l 106 -8 l -14 -8 l 672 993 l 807 993 m 756 -1 l 654 -1 l 654 146 l 467 146 q 430 167 444 146 q 415 215 415 189 q 417 236 415 231 q 422 247 421 244 l 547 483 l 649 483 l 532 240 l 654 240 l 654 483 l 756 483 l 756 -1 z "},"¾":{"ha":875,"x_min":-14,"x_max":807,"o":"m 347 697 q 304 589 347 631 q 196 547 261 547 q 90 592 129 547 q 46 701 51 636 l 143 701 q 159 660 143 675 q 200 646 175 646 q 238 659 222 646 q 253 696 253 672 q 211 750 253 733 q 169 804 169 767 q 194 844 169 832 q 249 897 249 872 q 233 933 249 918 q 194 947 217 947 q 167 937 179 947 q 150 900 156 926 l 53 900 q 94 1003 53 961 q 197 1044 136 1044 q 300 1001 258 1044 q 342 900 342 958 q 321 835 342 865 q 293 800 311 821 q 347 697 347 763 m 807 993 l 106 -8 l -14 -8 l 672 993 l 807 993 m 769 7 l 668 7 l 668 154 l 481 154 q 444 176 458 154 q 429 224 429 197 q 431 244 429 239 q 436 256 435 253 l 561 492 l 663 492 l 546 249 l 668 249 l 668 492 l 769 492 l 769 7 z "}}}
